<svg height="200" viewBox="0 0 200 200" width="200" xmlns="http://www.w3.org/2000/svg"><g fill="#0b0b09" fill-rule="evenodd" transform="translate(0 53)"><g fill-rule="nonzero"><path d="m41.7265243 11.6433962c2.6283019-3.08301884 4.3981132-7.37358488 3.9150943-11.6433962-3.7886792.14716981-8.3716981 2.44528302-11.090566 5.52641509-2.4358491 2.72830189-4.5698113 7.09622641-3.9943396 11.28113211 4.2245283.3169811 8.5396226-2.0792453 11.1698113-5.164151m9.4735849 27.1c.1056604 11.0377359 9.9962264 14.709434 10.1056604 14.7566038-.0849057.2584906-1.5811321 5.2339623-5.2113208 10.3716981-3.1377358 4.4433962-6.3943396 8.8698113-11.5245283 8.9603774-5.0415094.090566-6.6622641-2.8962264-12.4264151-2.8962264-5.7622641 0-7.5622641 2.8056603-12.335849 2.9867924-4.9509434.1811321-8.7226416-4.8037736-11.8867925-9.2301887-6.46603774-9.054717-11.40754717-25.5849056-4.77169811-36.7433962 3.29622641-5.5415094 9.18490561-9.0509434 15.57924531-9.1415094 4.8622641-.0886793 9.4528302 3.1698113 12.4245283 3.1698113s8.5490566-3.9188679 14.4132075-3.3433962c2.454717.0981132 9.345283.9603773 13.7716981 7.2339622-.3566037.2132076-8.2226415 4.6490566-8.1377358 13.8754717"/><path d="m84.5170903 39.4301887c1.1415094.3264151 2.4169811.554717 3.8283019.6867924 1.409434.1301887 2.9188679.1962264 4.5301887.1962264 6.045283 0 10.7283021-1.3773584 14.0528301-4.1320754s4.986793-6.7886793 4.986793-12.1018868c0-2.5584906-.43585-4.7905661-1.309434-6.6924528-.873585-1.9037736-2.115095-3.4603774-3.726416-4.6754717-1.61132-1.2132076-3.524528-2.1301887-5.741509-2.75471703-2.2150943-.62264151-4.6679245-.93584905-7.3547169-.93584905-2.1471699 0-3.9943397.08301886-5.5396227.24716981-1.545283.16415094-2.7867924.34339622-3.7264151.53962264zm-4.7377358-33.06415096c1.9490566-.32830189 4.0981132-.62264151 6.4490566-.88490566 2.3490566-.26226416 4.935849-.39433963 7.7566037-.39433963 4.0301887 0 7.5056602.4754717 10.4283022 1.4264151 2.920754.95094339 5.320754 2.31320754 7.2 4.08490565 1.613207 1.5735849 2.873585 3.4433962 3.779245 5.6075472.90566 2.1660377 1.358491 4.6584905 1.358491 7.4792453 0 3.4113207-.620755 6.3981132-1.862265 8.9547169-1.243396 2.5603774-2.937735 4.7075472-5.086792 6.4452831-2.149057 1.7377358-4.701887 3.0339622-7.656604 3.8867924-2.9547168.8528302-6.1792451 1.2792453-9.6716979 1.2792453-3.1566038 0-5.809434-.2301887-7.9566038-.6886792v28.3396226h-4.7377358z"/><path d="m149.675581 46.6132075c-2.55283-.0660377-5.222642.0320755-8.009434.2943397-2.786793.2622641-5.354717.8377358-7.70566 1.7226415-2.350944.8867924-4.298114 2.1811321-5.843397 3.8867924-1.543396 1.7075472-2.316981 3.9698114-2.316981 6.7905661 0 3.345283.973585 5.8056603 2.920755 7.381132 1.94717 1.573585 4.130189 2.3603774 6.549057 2.3603774 1.947169 0 3.692452-.2622641 5.237735-.7867924 1.543397-.5264151 2.886793-1.2320755 4.028302-2.1169812 1.14151-.8849056 2.098113-1.8849056 2.871698-3 .771698-1.1150943 1.360378-2.2622641 1.764151-3.4433962.335849-1.3132076.503774-2.2660377.503774-2.8566038zm4.735849 14.0698114c0 1.9037736.032075 3.8075471.1 5.7094339.066038 1.9018868.267924 3.7377359.603774 5.509434h-4.433963l-.703773-6.690566h-.201887c-.60566.9188679-1.377359 1.8377358-2.316981 2.7566037-.939623.9169812-2.032076 1.7528302-3.273585 2.5075472-1.24151.754717-2.65283 1.3622641-4.232076 1.8207547-1.579245.4584906-3.307547.6867925-5.186792.6867925-2.350943 0-4.416981-.3754717-6.196226-1.1301887-1.781133-.7528302-3.24151-1.7377359-4.383019-2.9509434-1.14151-1.2150943-1.998114-2.609434-2.567925-4.1830189-.571698-1.5735849-.856604-3.1471698-.856604-4.7226415 0-5.5754717 2.4-9.8735849 7.201887-12.890566 4.803774-3.0188679 12.039623-4.4622642 21.711321-4.3301887v-1.2792453c0-1.2471698-.116981-2.6735849-.35283-4.2811321-.235849-1.6075471-.756604-3.1339622-1.562264-4.5754717-.805661-1.4433962-2.013208-2.6566037-3.626416-3.6396226-1.61132-.9849057-3.794339-1.4773585-6.549056-1.4773585-2.081132 0-4.145283.3113208-6.192453.9339623-2.049057.6226415-3.913208 1.4924528-5.592453 2.6075471l-1.511321-3.445283c2.149057-1.4415094 4.366038-2.4735849 6.649057-3.0962264 2.283019-.6245283 4.667925-.935849 7.150943-.935849 3.358491 0 6.096227.5566037 8.211321 1.6716981 2.115095 1.1150943 3.777359 2.5584905 4.986793 4.3301886 1.209434 1.7698114 2.032075 3.754717 2.469811 5.9528302.435849 2.1981132.654717 4.3792453.654717 6.5433963z"/></g><path d="m163.671807 24.6679245 12.28868 30.7037736c.671698 1.7056604 1.31132 3.4603774 1.915094 5.264151.60566 1.8037735 1.141509 3.4603773 1.611321 4.9698113h.201886c.469812-1.4433962 1.007548-3.0679246 1.611321-4.8716981.605661-1.8037736 1.275472-3.6566038 2.015095-5.5622642l11.484905-30.5037736h5.035849l-14 34.6396227c-1.413207 3.6735849-2.739622 7.0037736-3.981132 9.9886792-1.243396 2.9849057-2.501887 5.6754717-3.777358 8.0698113-1.275472 2.3943397-2.569812 4.509434-3.879246 6.3471698-1.309434 1.8358491-2.769811 3.4433963-4.383018 4.8207548-1.879246 1.6396226-3.609434 2.835849-5.186793 3.5924528-1.577358.754717-2.635849 1.2301887-3.173585 1.4264151l-1.613207-3.8396227c1.209434-.5245283 2.55283-1.2132075 4.030188-2.0660377 1.477359-.8528302 2.922642-1.9679245 4.332076-3.345283 1.209434-1.1811321 2.535849-2.7396226 3.979245-4.6735849 1.445283-1.9358491 2.737736-4.2811321 3.879245-7.0377359.403774-1.0490566.605661-1.7377358.605661-2.0660377 0-.4584906-.201887-1.1471698-.605661-2.0660377l-17.428302-43.7905661z"/></g></svg>