<svg height="214" viewBox="0 0 214 214" width="214" xmlns="http://www.w3.org/2000/svg"><path d="m167.197 112.554c-25.664 0-46.468 20.805-46.468 46.47 0 25.664 20.804 46.469 46.468 46.469s46.468-20.805 46.468-46.469c0-25.665-20.804-46.47-46.468-46.47zm-120.7287.004c-25.6635 0-46.4683 20.801-46.4683 46.466 0 25.664 20.8048 46.469 46.4683 46.469 25.6646 0 46.4704-20.805 46.4704-46.469 0-25.665-20.8058-46.466-46.4704-46.466zm106.8317-58.0907c0 25.6656-20.804 46.4725-46.467 46.4725-25.6649 0-46.4687-20.8069-46.4687-46.4725 0-25.6605 20.8038-46.4673 46.4687-46.4673 25.663 0 46.467 20.8068 46.467 46.4673z" fill="#f06a6a" fill-rule="evenodd"/></svg>