<svg height="212" viewBox="0 0 212 212" width="212" xmlns="http://www.w3.org/2000/svg"><g fill="none" transform="translate(1 43)"><path d="m59.1156686 45.5581395c0 2.5813954.2790697 4.6744186.7674418 6.2093024.5581396 1.5348837 1.255814 3.2093023 2.2325582 5.0232558.3488372.5581395.4883721 1.116279.4883721 1.6046511 0 .6976745-.4186047 1.3953489-1.3255814 2.0930233l-4.3953489 2.9302326c-.6279069.4186046-1.2565116.6279069-1.8139535.6279069-.6976744 0-1.3953488-.3488372-2.0930232-.9767442-.9767442-1.0465116-1.8139535-2.1627907-2.5116279-3.2790697-.6976744-1.1860465-1.3953489-2.5116279-2.1627907-4.1162791-5.4425582 6.4186047-12.2790698 9.627907-20.5116279 9.627907-5.8604651 0-10.5348837-1.6744186-13.9534884-5.0232558-3.4186046-3.3488372-5.16279069-7.8139535-5.16279069-13.3953489 0-5.9302325 2.09232559-10.744186 6.34883719-14.372093 4.255814-3.627907 9.9069768-5.4418605 17.0930233-5.4418605 2.3713953 0 4.8139535.2093024 7.3953488.5581396 2.5813954.3488372 5.2325581.9069767 8.0232558 1.5348837v-5.0930233c0-5.3023255-1.116279-9-3.2790697-11.1627907-2.2325582-2.1627907-6-3.20930228-11.3720931-3.20930228-2.4418604 0-4.9534883.27906977-7.5348837.90697678-2.5813953.6279069-5.0930232 1.3953488-7.5348837 2.372093-1.1162791.4883721-1.9534884.7674418-2.4418605.9069767s-.8372093.2093024-1.1169767.2093024c-.9760465 0-1.4644186-.6976745-1.4644186-2.1627907v-3.41860469c0-1.11627907.1395349-1.95348838.4883721-2.44186047s.9760465-.97674418 1.9534883-1.46511628c2.4411628-1.25581395 5.3720931-2.30232558 8.7906977-3.13953488 3.4186047-.90697674 7.0465116-1.3255814 10.8837209-1.3255814 8.3023256 0 14.3720931 1.88372093 18.2790698 5.65116279 3.8372093 3.76744186 5.7906977 9.48837213 5.7906977 17.16279073v22.6046511zm-28.3255814 10.6046512c2.3023256 0 4.6737209-.4186047 7.1860465-1.255814 2.5116279-.8372093 4.744186-2.372093 6.627907-4.4651162 1.116279-1.3255814 1.9527907-2.7906977 2.372093-4.4651163.4186046-1.6744186.6976744-3.6976744.6976744-6.0697675v-2.9302325c-2.0232558-.4883721-4.1860465-.9069768-6.4186046-1.1860465-2.2325582-.2790698-4.3953489-.4186047-6.5581396-.4186047-4.6744186 0-8.0930232.9069768-10.3953488 2.7906977s-3.4186047 4.5348837-3.4186047 8.0232558c0 3.2790698.8372093 5.7209302 2.5813954 7.3953488 1.6744186 1.7441861 4.1162791 2.5813954 7.3255814 2.5813954zm56.0232558 7.5348837c-1.255814 0-2.0930233-.2093023-2.6511628-.6976744-.5581395-.4186047-1.0465116-1.3953488-1.4651163-2.7209302l-16.3953488-53.93023259c-.4193023-1.39534884-.627907-2.30232558-.627907-2.79069768 0-1.11627906.5574419-1.74418604 1.6744186-1.74418604h6.8372093c1.3248837 0 2.2325582.20930232 2.7209302.69767442.5581396.41860465.9767442 1.39534883 1.3953489 2.72093023l11.7209302 46.18604656 10.8830237-46.18604656c.349534-1.39534884.767441-2.30232558 1.326279-2.72093023.558139-.41860465 1.534186-.69767442 2.790697-.69767442h5.581396c1.324883 0 2.232558.20930232 2.790697.69767442.55814.41860465 1.046512 1.39534883 1.325582 2.72093023l11.022558 46.74418606 12.070465-46.74418606c.418605-1.39534884.906977-2.30232558 1.395349-2.72093023.558139-.41860465 1.465116-.69767442 2.72093-.69767442h6.488372c1.116279 0 1.744186.55813953 1.744186 1.74418604 0 .34883721-.069767.69767442-.139535 1.11627907-.070465.41860466-.209302.97674419-.488372 1.74418605l-16.813953 53.93023255c-.419303 1.3953488-.907675 2.3023256-1.465814 2.7209302-.557442.4186047-1.464419.6976745-2.650465.6976745h-6.000698c-1.324884 0-2.23186-.2093024-2.790698-.6976745-.558139-.4883721-1.046511-1.3953488-1.324883-2.7906976l-10.813954-45-10.7441859 44.9302325c-.3495349 1.3953489-.7674419 2.3023256-1.3255814 2.7906977-.5581396.4883721-1.5348838.6976744-2.7906977.6976744zm89.651163 1.8837209c-3.627907 0-7.255814-.4186046-10.744186-1.2558139s-6.209303-1.7441861-8.023256-2.7906977c-1.116279-.627907-1.884419-1.3255814-2.162791-1.9534884-.27907-.6279069-.418604-1.3255813-.418604-1.9534883v-3.5581396c0-1.4651162.558139-2.1627907 1.604651-2.1627907.418604 0 .836511.0697675 1.255116.2093024.419302.1395349 1.046512.4186046 1.744884.6976744 2.371395 1.0465116 4.953488 1.8837209 7.673721 2.4418605 2.791395.5581395 5.511628.8372093 8.303023.8372093 4.395349 0 7.813953-.7674419 10.185349-2.3023256 2.37279-1.5348837 3.628604-3.7674419 3.628604-6.627907 0-1.9534884-.627907-3.5581395-1.884418-4.8837209-1.255116-1.3255814-3.627209-2.5116279-7.046512-3.627907l-10.115581-3.1395349c-5.093023-1.6046512-8.860465-3.9767442-11.162791-7.1162791-2.302325-3.0697674-3.48907-6.4883721-3.48907-10.116279 0-2.9302326.628605-5.5116279 1.884419-7.7441861 1.255116-2.23255812 2.930232-4.18604649 5.023256-5.72093021 2.093023-1.60465116 4.465116-2.79069768 7.255814-3.62790698 2.790697-.8372093 5.72093-1.18604651 8.790697-1.18604651 1.534186 0 3.139535.06976744 4.673721.27906977 1.605349.20930232 3.069768.48837209 4.534884.76744186 1.395349.34883721 2.72093.69767442 3.977442 1.11627907 1.255116.41860465 2.232558.8372093 2.930232 1.25581395.976745.55813954 1.674419 1.11627907 2.093024 1.74418605.418604.55813953.627907 1.32558139.627907 2.30232558v3.27906972c0 1.4651163-.55814 2.2325582-1.604651 2.2325582-.55814 0-1.465117-.2790698-2.651163-.8372093-3.976744-1.8139535-8.441861-2.72093025-13.395349-2.72093025-3.976744 0-7.116279.62790695-9.27907 1.95348835s-3.27907 3.3488372-3.27907 6.2093023c0 1.9534884.697675 3.627907 2.093024 4.9534884 1.395348 1.3255814 3.976744 2.6511628 7.674418 3.8372093l9.906977 3.1395349c5.023256 1.6046512 8.651163 3.8372093 10.813953 6.6976744 2.162791 2.8604651 3.209303 6.1395349 3.209303 9.7674419 0 3-.627907 5.7209302-1.813954 8.0930232-1.255814 2.3720931-2.930232 4.4651163-5.093023 6.1395349-2.162791 1.7441861-4.744186 3-7.744186 3.9069768-3.139535.9767442-6.418605 1.4651162-9.976744 1.4651162z" fill="#252f3e"/><path d="m189.649855 99.4883721c-22.953489 16.9534879-56.302326 25.9534879-84.976047 25.9534879-40.1860464 0-76.3953487-14.860465-103.74418594-39.5581391-2.16348837-1.9534883-.20930232-4.6046511 2.37209302-3.0697674 29.58139532 17.1627907 66.06906982 27.5581395 103.81395392 27.5581395 25.465116 0 53.44186-5.302326 79.186046-16.1860465 3.837209-1.744186 7.116279 2.5116279 3.34814 5.3023256zm9.558837-10.8837209c-2.93093-3.7674419-19.395349-1.8139535-26.860465-.9069768-2.233256.2790698-2.582093-1.6744186-.55814-3.1395349 13.116279-9.2093023 34.673721-6.5581395 37.186047-3.4883721 2.511628 3.1395349-.697675 24.6976746-12.977442 35.0232556-1.883023 1.604651-3.696977.767442-2.860465-1.325581 2.790697-6.906977 9.000697-22.4651164 6.070465-26.1627908z" fill="#f90"/></g></svg>