<svg height="201" viewBox="0 0 200 201" width="200" xmlns="http://www.w3.org/2000/svg" xmlns:xlink="http://www.w3.org/1999/xlink"><linearGradient id="a" x1="49.940774%" x2="49.940774%" y1=".144065%" y2="100.032014%"><stop offset="0" stop-color="#81b4e0"/><stop offset="1" stop-color="#0c5a94"/></linearGradient><linearGradient id="b" x1="49.99966%" x2="49.99966%" y1=".137308%" y2="71.692945%"><stop offset="0" stop-color="#f06b59"/><stop offset="1" stop-color="#df2227"/></linearGradient><linearGradient id="c" x1="18.16866%" x2="48.838456%" y1="81.958285%" y2="38.281598%"><stop offset="0" stop-color="#388b41"/><stop offset="1" stop-color="#4cb749"/></linearGradient><linearGradient id="d" x1="65.064017%" x2="24.38157%" y1="85.351698%" y2="12.207629%"><stop offset="0" stop-color="#e4b022"/><stop offset=".3" stop-color="#fcd209"/></linearGradient><linearGradient id="e"><stop offset="0" stop-opacity=".15"/><stop offset=".3" stop-opacity=".06"/><stop offset="1" stop-opacity=".03"/></linearGradient><linearGradient id="f" x1="49.998604%" x2="49.998604%" xlink:href="#e" y1="96.295696%" y2="-2.466295%"/><linearGradient id="g" x1="105.959875%" x2="-6.275949%" xlink:href="#e" y1="8.540067%" y2="78.539083%"/><linearGradient id="h" x1="39.926852%" x2="47.694053%" xlink:href="#e" y1="547.057198%" y2="131.306991%"/><g fill="none" fill-rule="evenodd"><circle cx="100.18277" cy="100.651309" fill="#fff" r="98.410777"/><path d="m162.807276 118.543857c0-34.5873278-28.038352-62.6256803-62.624506-62.6256803-34.587328 0-62.6256805 28.0383525-62.6256805 62.6256803h17.8925483c0-24.7057373 20.0273947-44.733132 44.7319582-44.733132 24.704563 0 44.731958 20.0273947 44.731958 44.733132" fill="#000" fill-opacity=".1"/><circle cx="104.655614" cy="113.17621" fill="#000" fill-opacity=".1" r="33.996664"/><circle cx="100.18277" cy="100.650135" fill="url(#a)" r="36.6799"/><path d="m189.646686 55.9181767c-24.630584-49.55473774-84.769133-69.7606234-134.325045-45.1312141-15.4518271 7.6790187-28.6584285 19.2187163-38.3403362 33.5011164l40.2591144 69.782935c-7.4132478-23.5655092 5.6800064-48.6810715 29.2455153-56.0954937 4.1449107-1.3033337 8.4574668-1.9963807 12.802032-2.0573436" fill="url(#b)"/><path d="m16.9813048 44.2892533c-30.8131829 45.9673036-18.53018393 108.2078197 27.4347711 139.0233507 14.221554 9.53389 30.6488535 15.264625 47.7146364 16.64546l42.0498957-71.570193c-15.723648 19.057437-43.9146569 21.758287-62.9709195 6.036988-6.4727489-5.339159-11.313458-12.391066-13.9692693-20.350322" fill="url(#c)"/><path d="m92.1307123 199.95689c55.1807267 4.171053 103.2957937-37.180145 107.4691957-92.360872 1.346467-17.8048579-2.090252-35.6460349-9.954396-51.676667h-90.3575455c24.7022145.1139054 44.6391895 20.2328941 44.5252845 44.938632-.04645 9.994878-3.438447 19.686355-9.634991 27.528713" fill="url(#d)"/><path d="m16.9813048 44.2892533 40.2591144 69.7829347c-2.9821506-10.036377-2.349264-20.8008509 1.7884329-30.4186238l-40.2591145-42.0487216" fill="url(#f)"/><path d="m92.1307123 199.95689 42.0498957-71.570194c-6.634945 7.911017-15.801591 13.284053-25.94578 15.208138l-17.8937228 56.362056" fill="url(#g)"/><path d="m189.646686 55.9181767h-90.3587195c13.6105495.0633009 26.4519085 6.3197467 34.8902935 16.9989191l57.256859-14.3133341" fill="url(#h)"/></g></svg>