<svg height="153" viewBox="0 0 153 153" width="153" xmlns="http://www.w3.org/2000/svg"><g fill="none" fill-rule="evenodd" transform="translate(9 -2)"><path d="m96.0168504 20.1937671v113.9362519c0 12.758478 8.7933786 19.852538 18.1262186 19.852538 8.631536 0 18.126222-6.042091 18.126222-19.852538v-113.0731012c0-11.67952882-8.631532-18.98936235-18.126222-18.98936235-9.494686 0-18.1262186 8.06509395-18.1262186 18.12621165z" fill="#f8ab00"/><g fill="#e37300"><path d="m48.5434108 78.0250439v56.1049751c0 12.758478 8.7933783 19.852538 18.1262223 19.852538 8.6315322 0 18.1262222-6.042091 18.1262222-19.852538v-55.2418244c0-11.6795394-8.6315357-18.9893517-18.1262222-18.9893517s-18.1262223 8.0650869-18.1262223 18.126201z"/><path d="m37.3224193 135.856321c0 10.007211-8.1190356 18.126236-18.1262223 18.126236-10.00718666 0-18.12622223-8.119025-18.12622223-18.126236 0-10.007176 8.11903557-18.126201 18.12622223-18.126201 10.0071867 0 18.1262223 8.119025 18.1262223 18.126201"/></g></g></svg>