<svg height="82" viewBox="0 0 82 82" width="82" xmlns="http://www.w3.org/2000/svg" xmlns:xlink="http://www.w3.org/1999/xlink"><linearGradient id="a" x1="50.005395%" x2="50.005395%" y1="8.586106%" y2="100.013939%"><stop offset="0" stop-color="#263238" stop-opacity=".2"/><stop offset="1" stop-color="#263238" stop-opacity=".02"/></linearGradient><radialGradient id="b" cx="3.168047%" cy="2.717414%" gradientTransform="matrix(1 0 0 .727273 0 .007411)" r="161.248516%"><stop offset="0" stop-color="#fff" stop-opacity=".1"/><stop offset="1" stop-color="#fff" stop-opacity="0"/></radialGradient><g fill="none" fill-rule="evenodd" transform="translate(11)"><path d="m37.2263677 1.17288516h-30.77549746c-2.98703358 0-5.43097015 2.44393657-5.43097015 5.43097015v68.79228849c0 2.9870336 2.44393657 5.4309702 5.43097015 5.4309702h47.06840796c2.9870335 0 5.4309701-2.4439366 5.4309701-5.4309702v-52.499378l-12.6722636-9.0516169z" fill="#0f9d58"/><path d="m.81591995.93065876v26.24968914h28.96517415v-26.24968914zm12.67226375 22.62904234h-9.0516169v-4.5258085h9.0516169zm0-7.2412935h-9.0516169v-4.5258085h9.0516169zm0-7.24129362h-9.0516169v-4.52580838h9.0516169zm12.6722637 14.48258712h-9.051617v-4.5258085h9.051617zm0-7.2412935h-9.051617v-4.5258085h9.051617zm0-7.24129362h-9.051617v-4.52580838h9.051617z" fill="#f1f1f1" fill-rule="nonzero" transform="translate(14.686567 39.164179)"/><path d="m.87462803.5022369 20.13532177 20.130796v-18.54223729z" fill="url(#a)" transform="translate(37.940299 20.80597)"/><path d="m.71393034.0000004v16.2929104c0 3.0006111 2.43035915 5.4309702 5.43097015 5.4309702h16.29291041z" fill="#87ceac" transform="translate(36.512437 1.172885)"/><path d="m6.45087024 1.17288516c-2.98703358 0-5.43097015 2.44393657-5.43097015 5.43097015v.45258085c0-2.98703358 2.44393657-5.43097015 5.43097015-5.43097015h30.77549746v-.45258085z" fill="#fff" fill-opacity=".2"/><path d="m53.5192782 5.7178168h-47.06840796c-2.98703358 0-5.43097015-2.44393657-5.43097015-5.43097015v.45258076c0 2.98703358 2.44393657 5.43097015 5.43097015 5.43097015h47.06840796c2.9870335 0 5.4309701-2.44393657 5.4309701-5.43097015v-.45258076c0 2.98703358-2.4439366 5.43097015-5.4309701 5.43097015z" fill="#263238" fill-opacity=".2" transform="translate(0 74.656716)"/><path d="m5.94091995 5.7624374c-3.00061095 0-5.43097015-2.43035908-5.43097015-5.43097015v.45258089c0 3.00061095 2.4303592 5.43097015 5.43097015 5.43097015h16.29291045v-.45258089z" fill="#263238" fill-opacity=".1" transform="translate(36.716418 17.134328)"/><path d="m37.2263677 1.17288516h-30.77549746c-2.98703358 0-5.43097015 2.44393657-5.43097015 5.43097015v68.79228849c0 2.9870336 2.44393657 5.4309702 5.43097015 5.4309702h47.06840796c2.9870335 0 5.4309701-2.4439366 5.4309701-5.4309702v-52.499378z" fill="url(#b)"/></g></svg>