<svg height="215" viewBox="0 0 208 215" width="208" xmlns="http://www.w3.org/2000/svg" xmlns:xlink="http://www.w3.org/1999/xlink"><linearGradient id="a"><stop offset=".18" stop-color="#0052cc"/><stop offset="1" stop-color="#2684ff"/></linearGradient><linearGradient id="b" x1="91.866612%" x2="28.263522%" xlink:href="#a" y1="40.327696%" y2="81.65962%"/><linearGradient id="c" x1="8.709809%" x2="72.242572%" xlink:href="#a" y1="59.166447%" y2="17.989976%"/><g fill="none" fill-rule="evenodd"><path d="m205.459459 101.481081-92.513513-92.51351343-8.967568-8.96756757-69.6405402 69.6405405-31.8405405 31.8405405c-3.31974105 3.323875-3.31974105 8.708558 0 12.032433l63.6243243 63.624324 37.8567564 37.856757 69.640541-69.640541 1.078378-1.078378 30.762162-30.762162c3.319742-3.323875 3.319742-8.708558 0-12.032433zm-101.481081 37.8-31.7837834-31.783784 31.7837834-31.7837835 31.783784 31.7837835z" fill="#2684ff" fill-rule="nonzero"/><path d="m103.978378 75.7135135c-20.8096424-20.8121012-20.9110612-54.521167-.227027-75.4581081l-69.5554051 69.527027 37.8567568 37.8567566z" fill="url(#b)"/><path d="m135.847297 107.412162-31.868919 31.868919c10.044138 10.038165 15.687379 23.656424 15.687379 37.856757s-5.643241 27.818592-15.687379 37.856757l69.725676-69.725676z" fill="url(#c)"/></g></svg>