<svg height="165" viewBox="0 0 165 165" width="165" xmlns="http://www.w3.org/2000/svg"><g fill="none" fill-rule="evenodd" transform="translate(13)"><path d="m125.213261 41.9376087c-.150652.9723913-.325652 1.966087-.520435 2.9871739-6.72 34.5039131-29.7119564 46.4236957-59.0754347 46.4236957h-14.951087c-3.5913043 0-6.6180434 2.6067391-7.1765217 6.1493478l-9.8228261 62.3076089c-.3636956 2.326739 1.4289131 4.422174 3.7754348 4.422174h26.5178261c3.1393478 0 5.8069565-2.281087 6.3015217-5.377826l.2602174-1.34674 4.9928261-31.68413.321087-1.737826c.4884782-3.107391 3.1621739-5.39 6.3015217-5.39h3.9656522c25.6915215 0 45.8043475-10.43 51.6828265-40.6152174 2.454565-12.6091305 1.183913-23.1380435-5.313913-30.5428261-1.966087-2.2323913-4.405435-4.0858696-7.258696-5.5954348" fill="#298fc2"/><path d="m118.184348 39.1345652c-1.027174-.2997826-2.086305-.5706522-3.172826-.8156522-1.092609-.238913-2.211087-.4504347-3.363044-.6360869-4.031087-.6513044-8.448695-.9602174-13.1797823-.9602174h-39.941087c-.9845652 0-1.918913.2221739-2.7543478.623913-1.8428261.8856522-3.2108696 2.6295653-3.5426087 4.7645653l-8.4973913 53.817826-.2434783 1.5689131c.5584783-3.5426087 3.5852174-6.1493478 7.1765217-6.1493478h14.951087c29.3634783 0 52.3554347-11.9258696 59.0754347-46.4236957.20087-1.0210869.369783-2.0147826.520435-2.9871739-1.699783-.9023913-3.541087-1.673913-5.523913-2.3313044-.49-.162826-.995218-.3195652-1.505-.4717391" fill="#22284f"/><path d="m52.2306522 42.111087c.3317391-2.135 1.6997826-3.8789131 3.5426087-4.7584783.8415217-.4032609 1.7697826-.6254348 2.7543478-.6254348h39.941087c4.7310873 0 9.1486953.3104348 13.1797823.9617391 1.151957.1841305 2.270435.397174 3.363044.636087 1.086521.2434783 2.145652.5158696 3.172826.8141304.509782.1521739 1.015.3104348 1.509565.4671739 1.982826.6573914 3.825652 1.435 5.525435 2.3313044 1.999565-12.7506522-.016739-21.4321739-6.910218-29.2934783-7.601087-8.65565214-21.318043-12.35956518-38.8713039-12.35956518h-50.96c-3.5852174 0-6.6439131 2.60673913-7.1978261 6.15543478l-21.22521739 134.541522c-.41847826 2.661521 1.63434782 5.062826 4.31869565 5.062826h31.46043474z" fill="#28356a"/></g></svg>