<?xml version="1.0" encoding="UTF-8"?>
<svg width="199px" height="199px" viewBox="0 0 199 199" version="1.1" xmlns="http://www.w3.org/2000/svg" xmlns:xlink="http://www.w3.org/1999/xlink">
    <!-- Generator: Sketch 52.6 (67491) - http://www.bohemiancoding.com/sketch -->
    <title>slack</title>
    <desc>Created with Sketch.</desc>
    <g id="Page-1" stroke="none" stroke-width="1" fill="none" fill-rule="evenodd">
        <g id="slack">
            <g id="Path" transform="translate(0.000000, 104.937008)" fill="#E01E5A">
                <path d="M41.8346457,21.0472441 C41.8346457,32.5433071 32.5433071,41.8346457 21.0472441,41.8346457 C9.5511811,41.8346457 0.25984252,32.5433071 0.25984252,21.0472441 C0.25984252,9.5511811 9.5511811,0.25984252 21.0472441,0.25984252 L41.8346457,0.25984252 L41.8346457,21.0472441 Z"></path>
                <path d="M52.2283465,21.0472441 C52.2283465,9.5511811 61.519685,0.25984252 73.015748,0.25984252 C84.511811,0.25984252 93.8031496,9.5511811 93.8031496,21.0472441 L93.8031496,73.015748 C93.8031496,84.511811 84.511811,93.8031496 73.015748,93.8031496 C61.519685,93.8031496 52.2283465,84.511811 52.2283465,73.015748 L52.2283465,21.0472441 Z"></path>
            </g>
            <g id="Path" fill="#36C5F0">
                <path d="M73.015748,42.519685 C61.519685,42.519685 52.2283465,33.2283465 52.2283465,21.7322835 C52.2283465,10.2362205 61.519685,0.94488189 73.015748,0.94488189 C84.511811,0.94488189 93.8031496,10.2362205 93.8031496,21.7322835 L93.8031496,42.519685 L73.015748,42.519685 Z"></path>
                <path d="M73.015748,53.0708661 C84.511811,53.0708661 93.8031496,62.3622047 93.8031496,73.8582677 C93.8031496,85.3543307 84.511811,94.6456693 73.015748,94.6456693 L20.8897638,94.6456693 C9.3937008,94.6456693 0.1023622,85.3543307 0.1023622,73.8582677 C0.1023622,62.3622047 9.3937008,53.0708661 20.8897638,53.0708661 L73.015748,53.0708661 Z"></path>
            </g>
            <g id="Path" transform="translate(103.937008, 0.000000)" fill="#2EB67D">
                <path d="M52.3858268,73.8582677 C52.3858268,62.3622047 61.6771654,53.0708661 73.1732283,53.0708661 C84.6692913,53.0708661 93.9606299,62.3622047 93.9606299,73.8582677 C93.9606299,85.3543307 84.6692913,94.6456693 73.1732283,94.6456693 L52.3858268,94.6456693 L52.3858268,73.8582677 Z"></path>
                <path d="M41.992126,73.8582677 C41.992126,85.3543307 32.7007874,94.6456693 21.2047244,94.6456693 C9.7086614,94.6456693 0.41732283,85.3543307 0.41732283,73.8582677 L0.41732283,21.7322835 C0.41732283,10.2362205 9.7086614,0.94488189 21.2047244,0.94488189 C32.7007874,0.94488189 41.992126,10.2362205 41.992126,21.7322835 L41.992126,73.8582677 Z"></path>
            </g>
            <g id="Path" transform="translate(103.937008, 104.937008)" fill="#ECB22E">
                <path d="M21.2047244,52.2283465 C32.7007874,52.2283465 41.992126,61.519685 41.992126,73.015748 C41.992126,84.511811 32.7007874,93.8031496 21.2047244,93.8031496 C9.7086614,93.8031496 0.41732283,84.511811 0.41732283,73.015748 L0.41732283,52.2283465 L21.2047244,52.2283465 Z"></path>
                <path d="M21.2047244,41.8346457 C9.7086614,41.8346457 0.41732283,32.5433071 0.41732283,21.0472441 C0.41732283,9.5511811 9.7086614,0.25984252 21.2047244,0.25984252 L73.3307087,0.25984252 C84.8267717,0.25984252 94.1181102,9.5511811 94.1181102,21.0472441 C94.1181102,32.5433071 84.8267717,41.8346457 73.3307087,41.8346457 L21.2047244,41.8346457 Z"></path>
            </g>
        </g>
    </g>
</svg>