<svg height="242" viewBox="0 0 242 242" width="242" xmlns="http://www.w3.org/2000/svg"><g fill="#6772e5" fill-rule="evenodd" transform="translate(1 71)"><path d="m240 51.6c0-17.0666667-8.266667-30.5333333-24.066667-30.5333333-15.866666 0-25.466666 13.4666666-25.466666 30.4 0 20.0666666 11.333333 30.2 27.6 30.2 7.933333 0 13.933333-1.8 18.466666-4.3333334v-13.3333333c-4.533333 2.2666667-9.733333 3.6666667-16.333333 3.6666667-6.466667 0-12.2-2.2666667-12.933333-10.1333334h32.6c0-.8666666.133333-4.3333333.133333-5.9333333zm-32.933333-6.3333333c0-7.5333334 4.6-10.6666667 8.8-10.6666667 4.066666 0 8.4 3.1333333 8.4 10.6666667z" fill-rule="nonzero"/><path d="m164.733333 21.0666667c-6.533333 0-10.733333 3.0666666-13.066666 5.2l-.866667-4.1333334h-14.666667v77.7333334l16.666667-3.5333334.066667-18.8666666c2.4 1.7333333 5.933333 4.2 11.8 4.2 11.933333 0 22.8-9.6 22.8-30.7333334-.066667-19.3333333-11.066667-29.8666666-22.733334-29.8666666zm-4 45.9333333c-3.933333 0-6.266666-1.4-7.866666-3.1333333l-.066667-24.7333334c1.733333-1.9333333 4.133333-3.2666666 7.933333-3.2666666 6.066667 0 10.266667 6.8 10.266667 15.5333333 0 8.9333333-4.133333 15.6-10.266667 15.6z" fill-rule="nonzero"/><path d="m113.2 17.1333333 16.733333-3.6v-13.5333333l-16.733333 3.53333333z"/><path d="m113.2 22.2h16.733333v58.333333h-16.733333z"/><path d="m95.2666667 27.1333333-1.0666667-4.9333333h-14.4v58.3333333h16.6666667v-39.5333333c3.9333333-5.1333333 10.6000003-4.2 12.6666663-3.4666667v-15.3333333c-2.133333-.8-9.933333-2.2666667-13.8666663 4.9333333z"/><path d="m61.9333333 7.73333333-16.2666666 3.46666667-.0666667 53.4c0 9.8666667 7.4 17.1333333 17.2666667 17.1333333 5.4666666 0 9.4666666-1 11.6666666-2.2v-13.5333333c-2.1333333.8666667-12.6666666 3.9333333-12.6666666-5.9333333v-23.6666667h12.6666666v-14.2h-12.6666666z"/><path d="m16.8666667 39.1333333c0-2.6 2.1333333-3.6 5.6666666-3.6 5.0666667 0 11.4666667 1.5333334 16.5333334 4.2666667v-15.6666667c-5.5333334-2.2-11-3.0666666-16.5333334-3.0666666-13.5333333 0-22.5333333 7.0666666-22.5333333 18.8666666 0 18.4 25.3333333 15.4666667 25.3333333 23.4 0 3.0666667-2.6666666 4.0666667-6.4 4.0666667-5.5333333 0-12.59999997-2.2666667-18.19999997-5.3333333v15.8666666c6.2 2.6666667 12.46666667 3.8 18.19999997 3.8 13.8666667 0 23.4-6.8666666 23.4-18.8-.0666666-19.8666666-25.4666666-16.3333333-25.4666666-23.8z"/></g></svg>