<svg height="169" viewBox="0 0 166 169" width="166" xmlns="http://www.w3.org/2000/svg" xmlns:xlink="http://www.w3.org/1999/xlink"><linearGradient id="a" x1="50.048061%" x2="50.048061%" y1="100%" y2="0%"><stop offset="0" stop-color="#0052cc"/><stop offset="1" stop-color="#2684ff"/></linearGradient><path d="m146.293571 0h-126.5605487c-10.8876931 0-19.7180283 8.9835852-19.7328632 20.0751844v128.7412636c-.021054 5.345523 2.0485516 10.47952 5.7514529 14.267025 3.7029014 3.787505 8.73412 5.916527 13.9814103 5.916527h126.5605487c5.242681-.007154 10.267057-2.139395 13.964203-5.926116s5.763107-8.916605 5.742067-14.257436v-128.7412636c-.014811-11.0810306-8.828961-20.0602604-19.70627-20.0751844zm-74.293571 121.323923c-.007041 1.782376-.714933 3.48851-1.967179 4.741219s-2.945706 1.948816-4.705998 1.934646h-27.760417c-3.630839-.015103-6.566406-2.999536-6.566406-6.675865v-83.648277c0-3.6763285 2.935567-6.660762 6.566406-6.675646h27.760417c3.635191.0148118 6.57847 2.9949413 6.593099 6.675646zm63-38.046647c0 1.796956-.705021 3.51915-1.958024 4.782096-1.253005 1.262947-2.949526 1.961482-4.710811 1.940154h-27.742356c-3.632826-.015411-6.57419-3.016123-6.588809-6.72225v-45.555523c.014619-3.706126 2.955983-6.7068389 6.588809-6.721753h27.742356c3.628477.0149868 6.562163 3.020033 6.562134 6.721753z" fill="url(#a)"/></svg>