<svg height="197" viewBox="0 0 197 197" width="197" xmlns="http://www.w3.org/2000/svg"><g fill="none" fill-rule="evenodd" transform="translate(-2 -15)"><path d="m100 0 100 56.5633075v113.1524545l-100 56.563308-100-56.563308v-113.1524545z" fill="#fff"/><g fill-rule="nonzero"><path d="m182.144703 165.813953-78.837209 44.599484v-34.728682l49.121447-27.028424zm5.400517-4.88372v-93.2558144l-28.83721 16.6666667v59.9483207zm-170.0000004 4.88372 78.8372093 44.599484v-34.728682l-49.1472868-27.028424zm-5.4005168-4.88372v-93.2558144l28.8372093 16.6666667v59.9483207zm3.385013-99.302326 80.8527131-45.7364341v33.5658914l-51.8087855 28.501292-.4134367.2325582zm168.6304912 0-80.852713-45.7364341v33.5658914l51.808785 28.4754522.413437.2325582z" fill="#8ed6fb"/><path d="m96.3824289 167.777778-48.4754522-26.666667v-52.7906976l48.4754522 27.9844966zm6.9250651 0 48.475452-26.640827v-52.8165376l-48.475452 27.9844966zm-52.1188635-85.5555558 48.6563307-26.744186 48.6563308 26.744186-48.6563308 28.0878558z" fill="#1c78c0"/></g></g></svg>