<svg height="512" viewBox="0 0 512 512" width="512" xmlns="http://www.w3.org/2000/svg"><g fill="none" fill-rule="evenodd"><rect fill="#2d8cff" height="512" rx="15" width="512"/><path d="m428 357c8 2 15-2 19-8 2-3 2-8 2-19v-151c0-11 0-15-2-19-3-8-11-11-19-8-21 14-67 55-68 72-.8 3-.8 8-.8 15v38c0 8 0 11 .8 15 1 8 4 15 8 19 12 9 52 45 61 45zm-364-170c0-15 0-23 3-27 2-4 8-8 11-11 4-3 11-3 27-3h129c38 0 57 0 72 8 11 8 23 15 30 30 8 15 8 34 8 72v68c0 15 0 23-3 27-2 4-8 8-11 11-4 3-11 3-27 3h-129c-38 0-57 0-72-8-11-8-23-15-30-30-8-15-8-34-8-72z" fill="#fff" fill-rule="nonzero"/></g></svg>