<?xml version="1.0" encoding="UTF-8"?>
<svg width="96px" height="40px" viewBox="0 0 96 40" version="1.1" xmlns="http://www.w3.org/2000/svg" xmlns:xlink="http://www.w3.org/1999/xlink">
    <!-- Generator: Sketch 52.6 (67491) - http://www.bohemiancoding.com/sketch -->
    <title>stripe-logo</title>
    <desc>Created with Sketch.</desc>
    <g id="Page-1" stroke="none" stroke-width="1" fill="none" fill-rule="evenodd">
        <g id="stripe-logo" fill="#FFFFFF">
            <path d="M95.2380952,20.4761905 C95.2380952,13.7037143 91.957619,8.35980952 85.687619,8.35980952 C79.3914286,8.35980952 75.5819048,13.7037143 75.5819048,20.4232857 C75.5819048,28.3862381 80.0795238,32.4074286 86.5342857,32.4074286 C89.682381,32.4074286 92.0633333,31.6931429 93.862381,30.6878095 L93.862381,25.3968095 C92.0633333,26.2962857 90,26.8518571 87.3809524,26.8518571 C84.8147619,26.8518571 82.5395238,25.952381 82.2485714,22.8306667 L95.1852381,22.8306667 C95.1852381,22.4867619 95.2380952,21.1110952 95.2380952,20.4761905 Z M82.1695238,17.9629524 C82.1695238,14.9735238 83.9947619,13.7301429 85.6614286,13.7301429 C87.2752381,13.7301429 88.9947619,14.9735238 88.9947619,17.9629524 L82.1695238,17.9629524 Z" id="Shape"></path>
            <path d="M65.3704762,8.35980952 C62.777619,8.35980952 61.1109524,9.57671429 60.1852381,10.4232857 L59.8414286,8.78304762 L54.0209524,8.78304762 L54.0209524,39.629619 L60.6347619,38.2275238 L60.6614286,30.7407619 C61.6138095,31.4285714 63.0157143,32.4074286 65.3438095,32.4074286 C70.0795238,32.4074286 74.3914286,28.5979048 74.3914286,20.211619 C74.3652381,12.5396667 70,8.35980952 65.3704762,8.35980952 Z M63.7828571,26.5872857 C62.222381,26.5872857 61.2961905,26.0317619 60.6614286,25.3439048 L60.6347619,15.5290952 C61.3228571,14.7619048 62.2752381,14.2328095 63.7828571,14.2328095 C66.1904762,14.2328095 67.8571429,16.9312381 67.8571429,20.3968095 C67.8571429,23.9418095 66.2171429,26.5872857 63.7828571,26.5872857 Z" id="Shape"></path>
            <polygon id="Path" points="44.920619 6.79895238 51.5609524 5.37038095 51.5609524 0 44.920619 1.40211429"></polygon>
            <polygon id="Path" points="51.5609524 8.80952381 44.920619 8.80952381 44.920619 31.9576667 51.5609524 31.9576667"></polygon>
            <path d="M37.8042381,10.7671905 L37.3809524,8.80952381 L31.6666667,8.80952381 L31.6666667,31.9576667 L38.2804286,31.9576667 L38.2804286,16.2698571 C39.8412857,14.2328095 42.4867619,14.6031905 43.3068571,14.8941905 L43.3068571,8.80952381 C42.4603333,8.49204762 39.3650952,7.91004762 37.8042381,10.7671905 Z" id="Path"></path>
            <path d="M24.5767143,3.06878095 L18.1217143,4.44444286 L18.0952381,25.6349048 C18.0952381,29.5502857 21.0317619,32.4338571 24.9470952,32.4338571 C27.116381,32.4338571 28.7037143,32.0370476 29.5767143,31.5608571 L29.5767143,26.1904762 C28.7301429,26.534381 24.5502857,27.7513333 24.5502857,23.836 L24.5502857,14.4444286 L29.5767143,14.4444286 L29.5767143,8.80952381 L24.5502857,8.80952381 L24.5767143,3.06878095 Z" id="Path"></path>
            <path d="M6.69314286,15.5290952 C6.69314286,14.4973333 7.53966667,14.1005238 8.94180952,14.1005238 C10.952381,14.1005238 13.4920476,14.709 15.5026667,15.7936667 L15.5026667,9.57671429 C13.3068571,8.70371429 11.1375714,8.35980952 8.94180952,8.35980952 C3.57142857,8.35980952 0,11.164 0,15.8465714 C0,23.1481429 10.0529048,21.9841429 10.0529048,25.1322857 C10.0529048,26.3491905 8.99471429,26.7460476 7.5132381,26.7460476 C5.31747619,26.7460476 2.51322857,25.8465714 0.291004762,24.629619 L0.291004762,30.9259048 C2.75132381,31.9841429 5.23809524,32.4338571 7.5132381,32.4338571 C13.0158571,32.4338571 16.7989524,29.709 16.7989524,24.9735238 C16.7724762,17.0899524 6.69314286,18.4920476 6.69314286,15.5290952 Z" id="Path"></path>
        </g>
    </g>
</svg>