<?xml version="1.0" encoding="UTF-8"?>
<svg width="158px" height="50px" viewBox="0 0 158 50" version="1.1" xmlns="http://www.w3.org/2000/svg" xmlns:xlink="http://www.w3.org/1999/xlink">
    <!-- Generator: Sketch 52.6 (67491) - http://www.bohemiancoding.com/sketch -->
    <title>spotify-1</title>
    <desc>Created with Sketch.</desc>
    <g id="Page-1" stroke="none" stroke-width="1" fill="none" fill-rule="evenodd">
        <g id="spotify-1" fill="#FFFFFF" fill-rule="nonzero">
            <path d="M24.5182486,0.00290907632 C10.9822255,0.00290907632 0.00858679079,10.9762467 0.00858679079,24.5122698 C0.00858679079,38.0497479 10.9822255,49.0225169 24.5182486,49.0225169 C38.0548737,49.0225169 49.0279103,38.0497646 49.0279103,24.5122698 C49.0279103,10.9771164 38.0554423,0.00407978688 24.5179475,0.00407978688 L24.5182486,0.00290907632 Z M35.7582239,35.3524475 C35.3180367,36.0744916 34.3773708,36.300723 33.6576681,35.8608202 C27.9021707,32.343136 20.6578138,31.5485078 12.1262773,33.4974566 C11.3041542,33.6859577 10.4846568,33.1705441 10.2973598,32.3486885 C10.1091597,31.5265654 10.6222153,30.707068 11.4463955,30.519771 C20.7827955,28.3852646 28.7913254,29.3039881 35.2515905,33.2516074 C35.9715775,33.6935674 36.1998494,34.6330626 35.7579229,35.3530328 L35.7582239,35.3524475 Z M38.758153,28.6797151 C38.2038215,29.5791051 37.0278428,29.8612463 36.1296235,29.3089553 C29.5429215,25.2600695 19.4991114,24.0873019 11.7065943,26.4527393 C10.69597,26.7579937 9.62858304,26.188443 9.32185687,25.1795915 C9.01747213,24.1689673 9.58732386,23.1036207 10.5961753,22.7963092 C19.497372,20.0954966 30.5628948,21.403749 38.128595,26.0529416 C39.0271321,26.6061024 39.3110127,27.7826665 38.7578519,28.6799994 L38.758153,28.6797151 Z M39.0157093,21.7303772 C31.1151691,17.0384703 18.0834212,16.6070635 10.5414195,18.8960869 C9.33033616,19.263389 8.04957881,18.579694 7.68256105,17.368594 C7.31554329,16.1569253 7.9986529,14.8770376 9.21062265,14.5088491 C17.8683115,11.8806206 32.2607261,12.388408 41.3553576,17.787424 C42.4447038,18.4339406 42.8020716,19.8408336 42.156408,20.9287248 C41.5125172,22.018071 40.1018109,22.3771781 39.0159936,21.7303772 L39.0157093,21.7303772 Z M66.6912735,22.6294829 C62.4594391,21.6203304 61.7060869,20.9120672 61.7060869,19.4237764 C61.7060869,18.0177697 63.0298595,17.0715513 64.9984093,17.0715513 C66.9066675,17.0715513 68.7988201,17.7900665 70.7825891,19.2692593 C70.8425964,19.3140473 70.9178229,19.3318756 70.991862,19.3201852 C71.0659178,19.3090634 71.1314776,19.2683729 71.1747939,19.2072116 L73.241098,16.2944838 C73.3259745,16.1744859 73.3028446,16.0091314 73.188416,15.917515 C70.8273939,14.023021 68.1687102,13.1019561 65.0610757,13.1019561 C60.4917924,13.1019561 57.3001511,15.8440445 57.3001511,19.7673966 C57.3001511,23.9746293 60.0533613,25.4643585 64.811129,26.6142806 C68.8606169,27.5470359 69.5440275,28.3285019 69.5440275,29.7254439 C69.5440275,31.2734076 68.161987,32.2357317 65.9379379,32.2357317 C63.4677554,32.2357317 61.4529625,31.4036575 59.1990437,29.451782 C59.1431506,29.4034818 59.0664523,29.3815561 58.9956411,29.3856535 C58.9209999,29.3917914 58.8527976,29.4263274 58.8054006,29.4834079 L56.4885644,32.2407156 C56.3913954,32.3551441 56.4036879,32.5260679 56.5160928,32.6250097 C59.1384677,34.9661297 62.3637586,36.2027011 65.8442978,36.2027011 C70.7679887,36.2027011 73.9496956,33.5124083 73.9496956,29.3484918 C73.958476,25.8334334 71.8541405,23.8871271 66.7000872,22.6332961 L66.6912735,22.6294829 Z M85.0889564,18.4558998 C82.9547678,18.4558998 81.2042545,19.2964699 79.7607684,21.0188695 L79.7607684,19.0801728 C79.7607684,18.9271108 79.6366731,18.8024301 79.4838953,18.8024301 L75.6946063,18.8024301 C75.5415442,18.8024301 75.4177332,18.9271108 75.4177332,19.0801728 L75.4177332,40.621799 C75.4177332,40.774861 75.5415275,40.8995417 75.6946063,40.8995417 L79.4838953,40.8995417 C79.6366731,40.8995417 79.7607684,40.7748778 79.7607684,40.621799 L79.7607684,33.8220278 C81.2045555,35.4422912 82.9553532,36.2339925 85.0889564,36.2339925 C89.0544374,36.2339925 93.0688206,33.1813815 93.0688206,27.3459747 C93.0746742,21.5091129 89.059137,18.4556155 85.093355,18.4556155 L85.0889564,18.4558998 Z M88.6625504,27.3459747 C88.6625504,30.3175391 86.8321445,32.3911519 84.2112078,32.3911519 C81.6201578,32.3911519 79.6656565,30.2232802 79.6656565,27.3459747 C79.6656565,24.4689702 81.6201578,22.3008143 84.2112078,22.3008143 C86.7897146,22.3005132 88.6628515,24.4218408 88.6628515,27.3456737 L88.6625504,27.3459747 Z M103.357878,18.4558998 C98.2509542,18.4558998 94.2500509,22.3883165 94.2500509,27.4094774 C94.2500509,32.3759159 98.2234425,36.2670568 103.295245,36.2670568 C108.420315,36.2670568 112.433494,32.3478188 112.433494,27.345958 C112.433494,22.3613735 108.447224,18.4564851 103.357577,18.4564851 L103.357878,18.4558998 Z M103.357878,32.4207039 C100.641528,32.4207039 98.5936714,30.2381984 98.5936714,27.344503 C98.5936714,24.4384983 100.570717,22.3297643 103.295228,22.3297643 C106.029138,22.3297643 108.090743,24.5122531 108.090743,27.4080056 C108.090743,30.3134249 106.100552,32.4207039 103.358146,32.4207039 L103.357878,32.4207039 Z M123.33893,18.8024468 L119.16916,18.8024468 L119.16916,14.5393043 C119.16916,14.3865266 119.04565,14.2618459 118.892588,14.2618459 L115.103885,14.2618459 C114.950522,14.2618459 114.826142,14.3865266 114.826142,14.5393043 L114.826142,18.8024468 L113.004215,18.8024468 C112.851739,18.8024468 112.728212,18.9271108 112.728212,19.0801895 L112.728212,22.3368053 C112.728212,22.489583 112.851739,22.614548 113.004215,22.614548 L114.826142,22.614548 L114.826142,31.0410215 C114.826142,34.4463175 116.52103,36.1728313 119.863693,36.1728313 C121.222904,36.1728313 122.350566,35.8921451 123.413287,35.2895302 C123.499619,35.24123 123.55317,35.1481752 123.55317,35.0492502 L123.55317,31.9480379 C123.55317,31.852324 123.503398,31.7618949 123.421465,31.7118554 C123.33893,31.6600431 123.236209,31.6574174 123.151617,31.6992619 C122.421662,32.0665807 121.716041,32.2360327 120.927267,32.2360327 C119.7115,32.2360327 119.16916,31.6840427 119.16916,30.4469027 L119.16916,22.6160365 L123.33893,22.6160365 C123.491992,22.6160365 123.615218,22.4913558 123.615218,22.3382937 L123.615218,19.0819623 C123.621072,18.9289003 123.498147,18.8042196 123.343044,18.8042196 L123.33893,18.8024468 Z M137.867448,18.8191211 L137.867448,18.2955124 C137.867448,16.7551416 138.458055,16.0682356 139.782731,16.0682356 C140.572659,16.0682356 141.207201,16.2251108 141.917806,16.4621797 C142.005325,16.4897081 142.096623,16.4759439 142.167752,16.4235462 C142.240922,16.3711486 142.282198,16.2871585 142.282198,16.1981845 L142.282198,13.0050714 C142.282198,12.8830165 142.20376,12.7750268 142.086087,12.7390191 C141.335361,12.5156977 140.374809,12.2865394 138.936608,12.2865394 C135.436752,12.2865394 133.586745,14.2574307 133.586745,17.9840867 L133.586745,18.7860234 L131.76629,18.7860234 C131.613512,18.7860234 131.488246,18.9107041 131.488246,19.0634818 L131.488246,22.3367885 C131.488246,22.4895663 131.613512,22.6145313 131.76629,22.6145313 L133.586745,22.6145313 L133.586745,35.6120275 C133.586745,35.7650895 133.710255,35.8897702 133.86305,35.8897702 L137.652339,35.8897702 C137.805401,35.8897702 137.930081,35.7650895 137.930081,35.6120275 L137.930081,22.6154344 L141.467969,22.6154344 L146.887472,35.6097195 C146.272264,36.9750523 145.667274,37.2466572 144.841371,37.2466572 C144.173765,37.2466572 143.470753,37.0473353 142.75192,36.6539766 C142.68432,36.6167982 142.604126,36.6106603 142.531258,36.6332048 C142.458958,36.6586594 142.398098,36.7125121 142.367359,36.7827548 L141.083089,39.600354 C141.021911,39.7335307 141.074309,39.8898373 141.202502,39.9588925 C142.54325,40.6850174 143.753497,40.9949546 145.249364,40.9949546 C148.047345,40.9949546 149.593871,39.6916695 150.957163,36.1853913 L157.53097,19.1984146 C157.564035,19.1129527 157.5541,19.0163691 157.501703,18.9405739 C157.449639,18.8653474 157.365616,18.8199907 157.273698,18.8199907 L153.328989,18.8199907 C153.210781,18.8199907 153.105066,18.8952005 153.066466,19.0061337 L149.025491,30.5487378 L144.599335,18.9985241 C144.558962,18.8911031 144.455354,18.819974 144.340625,18.819974 L137.866579,18.819974 L137.867448,18.8191211 Z M129.444186,18.8024468 L125.654897,18.8024468 C125.501818,18.8024468 125.377154,18.9271108 125.377154,19.0801895 L125.377154,35.6120442 C125.377154,35.7651062 125.501818,35.8897869 125.654897,35.8897869 L129.444186,35.8897869 C129.596964,35.8897869 129.721929,35.7651062 129.721929,35.6120442 L129.721929,19.0813435 C129.722094,19.007576 129.692841,18.9367868 129.640649,18.8846549 C129.588458,18.8325231 129.517635,18.8033513 129.443868,18.8036008 L129.444186,18.8024468 Z M127.571049,11.275079 C126.069914,11.275079 124.851789,12.4902598 124.851789,13.9914118 C124.851789,15.4934334 126.070215,16.7101027 127.571066,16.7101027 C129.071632,16.7101027 130.288552,15.4934334 130.288552,13.9914118 C130.288552,12.4905608 129.07103,11.275079 127.572537,11.275079 L127.571049,11.275079 Z" id="Shape"></path>
        </g>
    </g>
</svg>