<?xml version="1.0" encoding="UTF-8"?>
<svg width="144px" height="30px" viewBox="0 0 144 30" version="1.1" xmlns="http://www.w3.org/2000/svg" xmlns:xlink="http://www.w3.org/1999/xlink">
    <!-- Generator: Sketch 52.6 (67491) - http://www.bohemiancoding.com/sketch -->
    <title>logo-meta</title>
    <desc>Created with Sketch.</desc>
    <g id="Page-1" stroke="none" stroke-width="1" fill="none" fill-rule="evenodd">
        <g id="logo-meta" fill="#FFFFFF">
            <path d="M4.72116197,19.1460902 C4.72116197,20.815065 5.08748522,22.0964364 5.56628948,22.8716433 C6.19405506,23.8870123 7.13038338,24.3171762 8.08495187,24.3171762 C9.31616281,24.3171762 10.4424928,24.0116534 12.6130721,21.0096268 C14.3519676,18.6034454 16.4009458,15.2259753 17.779598,13.1085965 L20.1143388,9.52136463 C21.7361932,7.03006249 23.6134099,4.26059787 25.765749,2.38338119 C27.5228846,0.851207566 29.4183415,0 31.3259585,0 C34.5286269,0 37.579294,1.8559365 39.9140348,5.33676744 C42.4691775,9.14896132 43.7095085,13.950684 43.7095085,18.9059281 C43.7095085,21.8517142 43.1288634,24.0162135 42.1408546,25.7262287 C41.1862861,27.3800034 39.3257896,29.0322581 36.1960817,29.0322581 L36.1960817,24.3171762 C38.8758656,24.3171762 39.5446715,21.8547543 39.5446715,19.0366492 C39.5446715,15.0207735 38.6083432,10.5640939 36.5456849,7.3796656 C35.0819118,5.12092552 33.184935,3.74075325 31.0979564,3.74075325 C28.8407364,3.74075325 27.0243202,5.44316838 24.9829421,8.47863537 C23.8976524,10.0913697 22.7834825,12.0567472 21.5325114,14.2744469 L20.1553792,16.7140686 C17.3889546,21.6191522 16.6882283,22.7363621 15.305016,24.5801385 C12.8805945,27.8086472 10.8103361,29.0322581 8.08495187,29.0322581 C4.85188313,29.0322581 2.80746496,27.6323256 1.5412937,25.5225469 C0.507684513,23.8034116 0,21.5477115 0,18.9773687 L4.72116197,19.1460902 Z" id="Logo0"></path>
            <path d="M3.87096774,5.6696504 C6.03546698,2.33322074 9.15909475,0 12.7417666,0 C14.816585,0 16.8792434,0.614085459 19.0331025,2.37274109 C21.3891235,4.29555818 23.9001858,7.46174633 27.0329336,12.6799527 L28.1562236,14.5526094 C30.8679277,19.0700895 32.4107414,21.3941902 33.3136295,22.4901199 C34.4749198,23.8976524 35.288127,24.3171762 36.3445364,24.3171762 C39.0243202,24.3171762 39.6931262,21.8547543 39.6931262,19.0366492 L43.8579632,18.9059281 C43.8579632,21.8517142 43.277318,24.0162135 42.2893092,25.7262287 C41.3347408,27.3800034 39.4742442,29.0322581 36.3445364,29.0322581 C34.3989191,29.0322581 32.6752238,28.6096943 30.7691268,26.8115183 C29.3038338,25.4313461 27.5907786,22.9795643 26.2729269,20.7755447 L22.352812,14.2273265 C20.3859145,10.9410573 18.5816585,8.49079547 17.5374092,7.38118561 C16.4141192,6.187975 14.9701064,4.7470022 12.6657659,4.7470022 C10.8007093,4.7470022 9.21685526,6.05573383 7.89140348,8.05759162 L3.87096774,5.6696504 Z" id="Logo1"></path>
            <path d="M12.5173113,4.7470022 C10.6522547,4.7470022 9.06840061,6.05573383 7.74294883,8.05759162 C5.86877217,10.8863368 4.72116197,15.0998142 4.72116197,19.1460902 C4.72116197,20.815065 5.08748522,22.0964364 5.56628948,22.8716433 L1.5412937,25.5225469 C0.507684513,23.8034116 0,21.5477115 0,18.9773687 C0,14.3033271 1.2828914,9.43168384 3.72251309,5.6696504 C5.88701233,2.33322074 9.01064009,0 12.5933119,0 L12.5173113,4.7470022 Z" id="Logo2"></path>
            <path d="M52.2580645,0.967741935 L57.7194731,0.967741935 L67.0052356,17.7669313 L76.2925182,0.967741935 L81.6353656,0.967741935 L81.6353656,28.5711873 L77.180206,28.5711873 L77.180206,7.41563925 L69.0359737,22.0655295 L64.8559365,22.0655295 L56.7132241,7.41563925 L56.7132241,28.5711873 L52.2580645,28.5711873 L52.2580645,0.967741935 Z M95.5951697,11.2597534 C92.4001013,11.2597534 90.4757642,13.6644148 90.0152001,16.6421213 L100.858977,16.6421213 C100.635535,13.574734 98.8662388,11.2597534 95.5951697,11.2597534 Z M85.5980409,18.3384563 C85.5980409,12.0729606 89.6473569,7.51292011 95.6726904,7.51292011 C101.599223,7.51292011 105.137815,12.0152001 105.137815,18.6728593 L105.137815,19.8964702 L90.0152001,19.8964702 C90.5517649,23.135619 92.701064,25.3183584 96.1666948,25.3183584 C98.9315994,25.3183584 100.659855,24.4747509 102.298429,22.9319372 L104.66509,25.8306029 C102.435231,27.8811012 99.5988853,29.0636717 96.0086134,29.0636717 C89.4862354,29.0636717 85.5980409,24.3075494 85.5980409,18.3384563 Z M110.539943,11.6549569 L106.438946,11.6549569 L106.438946,8.00692451 L110.539943,8.00692451 L110.539943,1.97399088 L114.838541,1.97399088 L114.838541,8.00692451 L121.069076,8.00692451 L121.069076,11.6549569 L114.838541,11.6549569 L114.838541,20.9011991 C114.838541,24.0582672 115.84783,25.1800372 118.328492,25.1800372 C119.460902,25.1800372 120.109948,25.0827563 121.069076,24.9231549 L121.069076,28.5316669 C119.874346,28.8691099 118.734335,29.0241513 117.500084,29.0241513 C112.859483,29.0241513 110.539943,26.4887688 110.539943,21.4134437 L110.539943,11.6549569 Z M139.169397,15.2026685 C138.306029,13.0229691 136.380172,11.4178348 133.549907,11.4178348 C129.871474,11.4178348 127.516973,14.027698 127.516973,18.2791758 C127.516973,22.4242527 129.684513,25.160277 133.373586,25.160277 C136.273771,25.160277 138.34403,23.473062 139.169397,21.3739233 L139.169397,15.2026685 Z M143.467995,28.5711873 L139.248438,28.5711873 L139.248438,25.6922817 C138.068907,27.3870968 135.922648,29.0636717 132.446377,29.0636717 C126.855768,29.0636717 123.119574,24.3835501 123.119574,18.2791758 C123.119574,12.117041 126.945448,7.51292011 132.683499,7.51292011 C135.519845,7.51292011 137.745144,8.64685019 139.248438,10.648708 L139.248438,8.00692451 L143.467995,8.00692451 L143.467995,28.5711873 Z" id="Text" fill-rule="nonzero"></path>
        </g>
    </g>
</svg>