<?xml version="1.0" encoding="UTF-8"?>
<svg width="140px" height="43px" viewBox="0 0 140 43" version="1.1" xmlns="http://www.w3.org/2000/svg" xmlns:xlink="http://www.w3.org/1999/xlink">
    <!-- Generator: Sketch 52.6 (67491) - http://www.bohemiancoding.com/sketch -->
    <title>logo-amazon</title>
    <desc>Created with Sketch.</desc>
    <g id="Page-1" stroke="none" stroke-width="1" fill="none" fill-rule="evenodd">
        <g id="logo-amazon" fill="#FFFFFF">
            <path d="M86.7719249,33.0239892 C78.7096605,38.9851786 66.9827305,42.1612222 56.8682533,42.1612222 C42.6982128,42.1612222 29.9940386,36.9329658 20.3193213,28.2354927 C19.5863881,27.5514218 20.2215969,26.6230398 21.1499788,27.1605241 C31.5576292,33.219438 44.4083901,36.8352414 57.6989108,36.8352414 C66.640695,36.8352414 76.5108611,34.9784775 85.5992319,31.118363 C86.9673738,30.5808787 88.0912046,32.046745 86.7719249,33.0239892 Z" id="Path"></path>
            <path d="M90.1033511,28.6109942 C89.0772447,27.2917146 83.2626419,27.9757855 80.6729449,28.3178209 C79.8911495,28.4155453 79.7445629,27.7314744 80.477496,27.2428523 C85.1194058,23.9690844 92.6930482,24.9463285 93.5725679,26.0212971 C94.4520877,27.0962657 93.3282569,34.7187703 88.9795203,38.3345737 C88.2954494,38.872058 87.6602407,38.5788847 87.9534139,37.8459516 C88.9306581,35.4028412 91.1294575,29.979136 90.1033511,28.6109942 Z" id="Path"></path>
            <path d="M80.4760575,4.5930476 L80.4760575,1.41700405 C80.4760575,0.928381962 80.8180929,0.635208711 81.2578528,0.635208711 L95.4278933,0.635208711 C95.8676532,0.635208711 96.2585509,0.977244171 96.2585509,1.41700405 L96.2585509,4.10442552 C96.2585509,4.5441854 95.8676532,5.1305319 95.1835823,6.10777607 L87.854251,16.5642887 C90.5905347,16.5154265 93.473405,16.9063242 95.9165154,18.274466 C96.4539997,18.5676393 96.6005863,19.0562614 96.6494485,19.4960212 L96.6494485,22.8675136 C96.6494485,23.3561357 96.1608264,23.89362 95.6233421,23.6004467 C91.2746056,21.3039229 85.4600028,21.0596119 80.6715063,23.649309 C80.1828842,23.89362 79.6453999,23.4049979 79.6453999,22.9163758 L79.6453999,19.6914701 C79.6453999,19.202848 79.6453999,18.3233282 80.1828842,17.5415329 L88.6849085,5.37484294 L81.306715,5.37484294 C80.8669552,5.37484294 80.4760575,5.03280748 80.4760575,4.5930476 Z M28.828703,24.2845177 L24.5288287,24.2845177 C24.137931,24.2356555 23.7958955,23.9424822 23.7470333,23.5515845 L23.7470333,1.46586626 C23.7470333,1.02610638 24.137931,0.68407092 24.5776909,0.68407092 L28.584392,0.68407092 C29.0241519,0.68407092 29.3173251,1.02610638 29.3661873,1.41700405 L29.3661873,4.29987435 L29.4639117,4.29987435 C30.4900181,1.51472846 32.4933687,0.195448834 35.1319279,0.195448834 C37.8193494,0.195448834 39.5295267,1.51472846 40.7022197,4.29987435 C41.7283261,1.51472846 44.1225743,0.195448834 46.6634092,0.195448834 C48.4713109,0.195448834 50.4257992,0.928381962 51.6473544,2.63855926 C53.0154963,4.49532319 52.722323,7.18274466 52.722323,9.57699288 L52.722323,23.5515845 C52.722323,23.9913444 52.3314254,24.3333799 51.8916655,24.3333799 L47.6406533,24.3333799 C47.2008935,24.2845177 46.858858,23.9424822 46.858858,23.5515845 L46.858858,11.8246545 C46.858858,10.8962725 46.9565824,8.5508865 46.7611336,7.67136674 C46.4190981,6.20550049 45.4907162,5.76574061 44.2202987,5.76574061 C43.1941923,5.76574061 42.0703616,6.44981153 41.6306017,7.57364233 C41.1908418,8.69747312 41.239704,10.5542371 41.239704,11.8246545 L41.239704,23.5515845 C41.239704,23.9913444 40.8488063,24.3333799 40.4090465,24.3333799 L36.1091721,24.3333799 C35.6694122,24.2845177 35.3273768,23.9424822 35.3273768,23.5515845 L35.3273768,11.8246545 C35.3273768,9.38154404 35.7182744,5.7168784 32.6888175,5.7168784 C29.6104984,5.7168784 29.7082228,9.23495742 29.7082228,11.8246545 L29.7082228,23.5515845 C29.6593606,23.9424822 29.3173251,24.2845177 28.828703,24.2845177 Z M108.474103,0.195448834 C114.875053,0.195448834 118.34427,5.66801619 118.34427,12.655312 C118.34427,19.3982968 114.533017,24.7731398 108.474103,24.7731398 C102.219741,24.7731398 98.7993857,19.3005724 98.7993857,12.4598632 C98.7505235,5.57029178 102.219741,0.195448834 108.474103,0.195448834 Z M108.474103,4.73963423 C105.29806,4.73963423 105.102611,9.08837079 105.102611,11.7757923 C105.102611,14.4632137 105.053749,20.2289544 108.425241,20.2289544 C111.747871,20.2289544 111.94332,15.5870445 111.94332,12.7530364 C111.94332,10.8962725 111.845596,8.64861092 111.308111,6.88957141 C110.819489,5.32598073 109.842245,4.73963423 108.474103,4.73963423 Z M126.601983,24.2845177 L122.302108,24.2845177 C121.862349,24.2356555 121.520313,23.89362 121.520313,23.5027223 L121.520313,1.36814184 C121.569175,0.977244171 121.911211,0.635208711 122.350971,0.635208711 L126.357672,0.635208711 C126.748569,0.635208711 127.041743,0.928381962 127.139467,1.27041742 L127.139467,4.64190981 L127.237191,4.64190981 C128.458747,1.61245288 130.120062,0.195448834 133.100657,0.195448834 C135.006283,0.195448834 136.911909,0.879519754 138.133464,2.78514589 C139.257295,4.5441854 139.257295,7.52478012 139.257295,9.6747173 L139.257295,23.6004467 C139.208433,23.9913444 138.866397,24.2845177 138.426637,24.2845177 L134.126763,24.2845177 C133.735865,24.2356555 133.39383,23.9424822 133.344968,23.6004467 L133.344968,11.5803434 C133.344968,9.137233 133.638141,5.61915398 130.657546,5.61915398 C129.63144,5.61915398 128.654196,6.3032249 128.165573,7.37819349 C127.579227,8.74633533 127.481503,10.065615 127.481503,11.5803434 L127.481503,23.5027223 C127.43264,23.9424822 127.041743,24.2845177 126.601983,24.2845177 Z M73.5376239,24.2356555 C73.2444506,24.4799665 72.853553,24.5288287 72.5115175,24.3333799 C71.0945134,23.1606869 70.8013402,22.5743404 70.0195449,21.4505096 C67.6741588,23.8447578 65.9639815,24.5776909 62.9345246,24.5776909 C59.3187212,24.5776909 56.4847131,22.3300293 56.4847131,17.8835683 C56.4847131,14.3654893 58.3903392,12.0201033 61.0777607,10.8474103 C63.4231467,9.82130392 66.6969147,9.62585509 69.1888873,9.33268184 L69.1888873,8.79519754 C69.1888873,7.76909116 69.2866117,6.54753595 68.651403,5.66801619 C68.1139187,4.88622086 67.1366745,4.5441854 66.2571548,4.5441854 C64.5958397,4.5441854 63.1299734,5.37484294 62.787938,7.13388245 C62.6902136,7.52478012 62.4459025,7.91567779 62.0550049,7.91567779 L57.9017171,7.47591791 C57.5596817,7.37819349 57.168784,7.13388245 57.2665084,6.59639816 C58.2437526,1.51472846 62.787938,0 66.8923635,0 C68.9934385,0 71.7297222,0.537484294 73.3910372,2.14993718 C75.4921122,4.10442552 75.2966634,6.74298478 75.2966634,9.57699288 L75.2966634,16.2711155 C75.2966634,18.274466 76.1273209,19.1539858 76.9091163,20.2778166 C77.2022895,20.6687142 77.2511517,21.1573363 76.9091163,21.4016474 C75.9807343,22.1345805 74.4171436,23.5027223 73.5376239,24.2356555 Z M69.1888873,13.7302806 L69.1888873,12.8018987 C66.061706,12.8018987 62.787938,13.4859696 62.787938,17.1506352 C62.787938,19.0073991 63.7651822,20.2778166 65.4264972,20.2778166 C66.6480525,20.2778166 67.7230211,19.5448834 68.407092,18.3233282 C69.2377495,16.8085998 69.1888873,15.3915957 69.1888873,13.7302806 Z M17.0529108,24.2356555 C16.7597375,24.4799665 16.3688398,24.5288287 16.0268044,24.3333799 C14.6098003,23.1606869 14.3166271,22.5743404 13.5348317,21.4505096 C11.1894457,23.8447578 9.47926846,24.5776909 6.44981153,24.5776909 C2.8340081,24.5776909 0,22.3300293 0,17.8835683 C0,14.3654893 1.90562614,12.0201033 4.59304761,10.8474103 C6.93843362,9.82130392 10.2122016,9.62585509 12.7041742,9.33268184 L12.7041742,8.79519754 C12.7041742,7.76909116 12.8018986,6.54753595 12.1666899,5.66801619 C11.6292056,4.88622086 10.6519614,4.5441854 9.77244172,4.5441854 C8.11112662,4.5441854 6.64526037,5.37484294 6.30322491,7.13388245 C6.20550049,7.52478012 5.96118945,7.91567779 5.57029178,7.91567779 L1.41700405,7.47591791 C1.07496859,7.37819349 0.68407092,7.13388245 0.781795337,6.59639816 C1.75903951,1.51472846 6.30322491,0 10.4076504,0 C12.5087254,0 15.245009,0.537484294 16.9063241,2.14993718 C19.0073991,4.10442552 18.8119503,6.74298478 18.8119503,9.57699288 L18.8119503,16.2711155 C18.8119503,18.274466 19.6426078,19.1539858 20.4244032,20.2778166 C20.7175764,20.6687142 20.7664386,21.1573363 20.4244032,21.4016474 C19.4960212,22.1345805 17.9324305,23.5027223 17.0529108,24.2356555 Z M12.7530364,13.7302806 L12.7530364,12.8018987 C9.62585509,12.8018987 6.35208712,13.4859696 6.35208712,17.1506352 C6.35208712,19.0073991 7.32933129,20.2778166 8.99064638,20.2778166 C10.2122016,20.2778166 11.2871702,19.5448834 11.9712411,18.3233282 C12.8018986,16.8085998 12.7530364,15.3915957 12.7530364,13.7302806 Z" id="Shape" fill-rule="nonzero"></path>
        </g>
    </g>
</svg>