<?xml version="1.0" encoding="UTF-8"?>
<svg width="101px" height="35px" viewBox="0 0 101 35" version="1.1" xmlns="http://www.w3.org/2000/svg" xmlns:xlink="http://www.w3.org/1999/xlink">
    <!-- Generator: Sketch 52.6 (67491) - http://www.bohemiancoding.com/sketch -->
    <title>Uber_logo_2018</title>
    <desc>Created with Sketch.</desc>
    <g id="Page-1" stroke="none" stroke-width="1" fill="none" fill-rule="evenodd">
        <g id="Uber_logo_2018" fill="#FFFFFF">
            <path d="M5.79652174,24.9792391 C6.22228261,26.1091304 6.81173913,27.0752174 7.565,27.8775 C8.31826087,28.6798913 9.21065217,29.293913 10.2421739,29.7196739 C11.2738043,30.1454348 12.3954348,30.3582609 13.6071739,30.3582609 C14.7861957,30.3582609 15.891413,30.1371739 16.9230435,29.695 C17.9546739,29.2528261 18.8552174,28.6306522 19.6247826,27.8283696 C20.3943478,27.0259783 20.9920652,26.0681522 21.4178261,24.9546739 C21.843587,23.8411957 22.056413,22.5968478 22.056413,21.2213043 L22.056413,0 L27.2143478,0 L27.2143478,34.3863043 L22.1055435,34.3863043 L22.1055435,31.1932609 C20.9593478,32.4048913 19.6083696,33.3382609 18.0528261,33.9933696 C16.4971739,34.6482609 14.818913,34.9757609 13.0177174,34.9757609 C11.1836957,34.9757609 9.4726087,34.656413 7.88423913,34.0178261 C6.29597826,33.3792391 4.92043478,32.4705435 3.75793478,31.2915217 C2.59543478,30.1125 1.67836957,28.6963043 1.00706522,27.0423913 C0.335652174,25.388587 0,23.5465217 0,21.5159783 L0,0 L5.15793478,0 L5.15793478,21.2213043 C5.15793478,22.5968478 5.37076087,23.8493478 5.79652174,24.9792391 Z" id="Path"></path>
            <path d="M36.1052174,0 L36.1052174,12.526413 C37.251413,11.3802174 38.5778261,10.4715217 40.0842391,9.8001087 C41.5906522,9.12869565 43.2281522,8.79304348 44.9965217,8.79304348 C46.8305435,8.79304348 48.5496739,9.13684783 50.1544565,9.82456522 C51.7591304,10.5122826 53.1508696,11.4456522 54.3298913,12.6246739 C55.508913,13.8036957 56.4422826,15.1954348 57.13,16.8001087 C57.8177174,18.4048913 58.1615217,20.1078261 58.1615217,21.9090217 C58.1615217,23.7101087 57.8177174,25.4048913 57.13,26.9931522 C56.4422826,28.5815217 55.508913,29.9652174 54.3298913,31.1440217 C53.1508696,32.3230435 51.7591304,33.256413 50.1544565,33.9441304 C48.5496739,34.6318478 46.8304348,34.9756522 44.9965217,34.9756522 C43.2280435,34.9756522 41.5825,34.64 40.0596739,33.968587 C38.5368478,33.2972826 37.2022826,32.3884783 36.056087,31.2422826 L36.056087,34.3861957 L31.1438043,34.3861957 L31.1438043,0 L36.1052174,0 Z M36.6701087,25.2984783 C37.1121739,26.3465217 37.7263043,27.2634783 38.5122826,28.0494565 C39.2982609,28.8354348 40.2152174,29.4577174 41.2631522,29.9161957 C42.3111957,30.3746739 43.4409783,30.603913 44.6527174,30.603913 C45.8317391,30.603913 46.9451087,30.3746739 47.9930435,29.9161957 C49.0409783,29.4577174 49.9496739,28.8355435 50.7194565,28.0494565 C51.4890217,27.263587 52.1030435,26.3465217 52.5615217,25.2984783 C53.02,24.2505435 53.2492391,23.1207609 53.2492391,21.9090217 C53.2492391,20.6972826 53.02,19.5592391 52.5615217,18.4948913 C52.1030435,17.4305435 51.4890217,16.5054348 50.7194565,15.7194565 C49.9497826,14.933587 49.041087,14.3194565 47.9930435,13.8773913 C46.945,13.4353261 45.8316304,13.2141304 44.6527174,13.2141304 C43.4738043,13.2141304 42.3603261,13.4352174 41.3123913,13.8773913 C40.2644565,14.3195652 39.3475,14.933587 38.561413,15.7194565 C37.7755435,16.5054348 37.1532609,17.4305435 36.6947826,18.4948913 C36.2363043,19.5592391 36.0070652,20.6972826 36.0070652,21.9090217 C36.0069565,23.1207609 36.2280435,24.2505435 36.6701087,25.2984783 Z" id="Shape" fill-rule="nonzero"></path>
            <path d="M60.961087,16.8493478 C61.6159783,15.2773913 62.5167391,13.8938043 63.6628261,12.6984783 C64.808913,11.5031522 66.1681522,10.5616304 67.7401087,9.87391304 C69.3120652,9.18619565 71.015,8.8423913 72.848913,8.8423913 C74.6501087,8.8423913 76.3203261,9.1698913 77.8595652,9.82478261 C79.3986957,10.4797826 80.725,11.388587 81.8384783,12.5511957 C82.9519565,13.7136957 83.8198913,15.0892391 84.4419565,16.6775 C85.0642391,18.2658696 85.3753261,19.9933696 85.3753261,21.8601087 L85.3753261,23.4811957 L64.9892391,23.4811957 C65.1530435,24.496413 65.4805435,25.4379348 65.9717391,26.3056522 C66.4630435,27.1734783 67.0769565,27.9267391 67.8138043,28.5653261 C68.5506522,29.2040217 69.3857609,29.7034783 70.3191304,30.063587 C71.2525,30.4238043 72.2430435,30.6040217 73.291087,30.6040217 C76.2713043,30.6040217 78.6783696,29.3758696 80.5122826,26.9196739 L84.0982609,29.5722826 C82.8538043,31.2425 81.3146739,32.5525 79.4807609,33.5021739 C77.6467391,34.4518478 75.583587,34.9267391 73.2911957,34.9267391 C71.4244565,34.9267391 69.6806522,34.5991304 68.0595652,33.9442391 C66.4384783,33.2893478 65.0303261,32.3722826 63.835,31.1932609 C62.6396739,30.0142391 61.6981522,28.6306522 61.0104348,27.0423913 C60.3227174,25.4541304 59.9788043,23.7265217 59.9788043,21.8598913 C59.978587,20.0915217 60.3061957,18.4213043 60.961087,16.8493478 Z M67.8629348,14.908913 C66.471087,16.0715217 65.5459783,17.618913 65.0875,19.551087 L80.3648913,19.551087 C79.9391304,17.618913 79.0303261,16.0715217 77.6384783,14.908913 C76.2466304,13.746413 74.6173913,13.1651087 72.7507609,13.1651087 C70.8840217,13.1651087 69.2547826,13.746413 67.8629348,14.908913 Z" id="Shape" fill-rule="nonzero"></path>
            <path d="M94.6593478,15.4738043 C93.611413,16.62 93.0873913,18.1755435 93.0873913,20.1405435 L93.0873913,34.386413 L88.1258696,34.386413 L88.1258696,9.33347826 L93.0381522,9.33347826 L93.0381522,12.4282609 C93.6604348,11.4130435 94.4709783,10.6106522 95.4697826,10.0211957 C96.468587,9.43163043 97.6557609,9.13684783 99.0313043,9.13684783 L100.750543,9.13684783 L100.750543,13.7544565 L98.6873913,13.7544565 C97.05,13.7545652 95.7072826,14.3276087 94.6593478,15.4738043 Z" id="Path"></path>
        </g>
    </g>
</svg>