<?xml version="1.0" encoding="UTF-8"?>
<svg width="174px" height="50px" viewBox="0 0 174 50" version="1.1" xmlns="http://www.w3.org/2000/svg" xmlns:xlink="http://www.w3.org/1999/xlink">
    <!-- Generator: Sketch 52.6 (67491) - http://www.bohemiancoding.com/sketch -->
    <title>shopify-0fd4beeb</title>
    <desc>Created with Sketch.</desc>
    <g id="Page-1" stroke="none" stroke-width="1" fill="none" fill-rule="evenodd">
        <g id="shopify-0fd4beeb" fill="#FFFFFF">
            <path d="M60.4026667,27.3911667 C58.9346667,26.5798333 58.162,25.9231667 58.162,24.996 C58.162,23.7983333 59.2051667,23.0643333 60.8663333,23.0643333 C62.798,23.0643333 64.4978333,23.8756667 64.4978333,23.8756667 L65.85,19.7418333 C65.85,19.7418333 64.6136667,18.776 60.9435,18.776 C55.844,18.776 52.2898333,21.7121667 52.2898333,25.8071667 C52.2898333,28.1251667 53.951,29.9023333 56.1531667,31.1771667 C57.9301667,32.1816667 58.5483333,32.9156667 58.5483333,33.9588333 C58.5483333,35.0791667 57.6598333,35.9676667 55.9985,35.9676667 C53.526,35.9676667 51.208,34.6928333 51.208,34.6928333 L49.7786667,38.8265 C49.7786667,38.8265 51.9421667,40.256 55.535,40.256 C60.789,40.256 64.5365,37.6675 64.5365,33.0316667 C64.6136667,30.4818333 62.682,28.7046667 60.4026667,27.3911667 Z" id="Path"></path>
            <path d="M81.3373333,18.699 C78.7488333,18.699 76.74,19.9351667 75.156,21.7895 L75.0788333,21.751 L77.3195,10.0065167 L71.4473333,10.0065167 L65.7681667,39.8698333 L71.6018333,39.8698333 L73.5335,29.6706667 C74.3061667,25.8073333 76.2763333,23.4508333 78.1308333,23.4508333 C79.4443333,23.4508333 79.9465,24.3393333 79.9465,25.6141667 C79.9465,26.4255 79.8693333,27.3913333 79.6761667,28.2026667 L77.474,39.9085 L83.3076667,39.9085 L85.587,27.855 C85.8573333,26.58 86.0118333,25.0733333 86.0118333,24.0303333 C86.0891667,20.6691667 84.3893333,18.699 81.3373333,18.699 Z" id="Path"></path>
            <path d="M99.31,18.698 C92.2788333,18.698 87.6041667,25.0336667 87.6041667,32.1035 C87.6041667,36.6236667 90.3856667,40.2936667 95.6398333,40.2936667 C102.555167,40.2936667 107.191,34.1125 107.191,26.8881667 C107.229667,22.6771667 104.795833,18.698 99.31,18.698 Z M96.4511667,35.7736667 C94.4421667,35.7736667 93.6308333,34.0738333 93.6308333,31.949 C93.6308333,28.588 95.3693333,23.1406667 98.5373333,23.1406667 C100.6235,23.1406667 101.280167,24.9178333 101.280167,26.6563333 C101.280167,30.2878333 99.5418333,35.7736667 96.4511667,35.7736667 Z" id="Shape" fill-rule="nonzero"></path>
            <path d="M122.175,18.698 C118.2345,18.698 115.993833,22.1748333 115.993833,22.1748333 L115.9165,22.1748333 L116.264167,19.0456667 L111.0875,19.0456667 C110.817,21.1705 110.353333,24.377 109.889833,26.8108333 L105.833333,48.1361667 L111.666833,48.1361667 L113.2895,39.4825 L113.405333,39.4825 C113.405333,39.4825 114.603,40.2551667 116.843667,40.2551667 C123.720333,40.2551667 128.201833,33.2238333 128.201833,26.1155 C128.201833,22.2135 126.463333,18.698 122.175,18.698 Z M116.612,35.8895 C115.105167,35.8895 114.216667,35.0396667 114.216667,35.0396667 L115.1825,29.5923333 C115.877833,25.9608333 117.771,23.527 119.779833,23.527 C121.557,23.527 122.097833,25.1883333 122.097833,26.7335 C122.097833,30.481 119.857167,35.8895 116.612,35.8895 Z" id="Shape" fill-rule="nonzero"></path>
            <path d="M136.5515,10.31575 C134.697,10.31575 133.190167,11.7839667 133.190167,13.7158333 C133.190167,15.4545167 134.272,16.6522667 135.933333,16.6522667 L136.010667,16.6522667 C137.826667,16.6522667 139.410667,15.4158833 139.449333,13.2521833 C139.488,11.5135167 138.328833,10.31575 136.5515,10.31575 Z" id="Path"></path>
            <polygon id="Path" points="128.359333 39.8673333 134.231667 39.8673333 138.210833 19.1601667 132.3 19.1601667"></polygon>
            <path d="M153.050167,19.1228333 L148.993667,19.1228333 L149.186833,18.157 C149.534667,16.1481167 150.693667,14.371 152.663833,14.371 C153.707,14.371 154.518167,14.6800667 154.518167,14.6800667 L155.677167,10.1213667 C155.677167,10.1213667 154.672833,9.61913333 152.509333,9.61913333 C150.423167,9.61913333 148.375667,10.1986333 146.791667,11.5507833 C144.782667,13.2506333 143.8555,15.6845167 143.392,18.157 L143.2375,19.1228333 L140.533167,19.1228333 L139.683167,23.527 L142.3875,23.527 L139.296833,39.8686667 L145.1305,39.8686667 L148.221167,23.527 L152.238833,23.527 L153.050167,19.1228333 Z" id="Path"></path>
            <path d="M167.1,19.1601667 C167.1,19.1601667 163.430667,28.3548333 161.808167,33.377 L161.730833,33.377 C161.615,31.7545 160.301333,19.1601667 160.301333,19.1601667 L154.158833,19.1601667 L157.674333,38.1675 C157.751667,38.5925 157.713,38.863 157.5585,39.1333333 C156.863,40.4468333 155.742667,41.7218333 154.3905,42.649 C153.308833,43.4603333 152.072667,43.9625 151.106833,44.3101667 L152.729333,49.2551667 C153.927,48.9848333 156.360833,48.019 158.447,46.0873333 C161.112667,43.5761667 163.585167,39.7515 166.096333,34.4975 L173.243333,19.1601667 L167.1,19.1601667 Z" id="Path"></path>
            <path d="M29.654,5.71833333 C29.654,5.71833333 29.113,5.87286667 28.2245,6.1433 C28.07,5.64106667 27.8381667,5.06158333 27.5291667,4.44345 C26.5246667,2.5118 25.018,1.46871667 23.2408333,1.46871667 C23.125,1.46871667 23.009,1.46871667 22.8545,1.50734833 C22.8158333,1.43008333 22.7386667,1.39145 22.7,1.314185 C21.9273333,0.46426 20.9228333,0.0779298333 19.7253333,0.116562667 C17.4073333,0.193828333 15.0893167,1.85505 13.2349333,4.82978333 C11.9214167,6.91596667 10.9169667,9.543 10.6465333,11.59055 C7.98085,12.4018333 6.12648333,12.9813333 6.08785,13.0199667 C4.73568333,13.4449333 4.69705,13.4835667 4.54253333,14.75845 C4.42663333,15.7242833 0.872396667,42.9218333 0.872396667,42.9218333 L30.0788333,47.9828333 L30.0788333,5.6797 C29.8471667,5.6797 29.7311667,5.71833333 29.654,5.71833333 Z M22.8931667,7.80451667 C21.3478333,8.26811667 19.648,8.80898333 17.9868333,9.3112 C18.4503333,7.49545 19.3775,5.6797 20.4593333,4.48208333 C20.8843333,4.05711667 21.4638333,3.5549 22.1205,3.24583333 C22.7773333,4.63661667 22.9318333,6.52963333 22.8931667,7.80451667 Z M19.7253333,1.70051667 C20.2661667,1.70051667 20.7296667,1.81641667 21.116,2.04821667 C20.498,2.35726667 19.8798333,2.8595 19.3003333,3.439 C17.8323333,5.02295 16.7118333,7.49545 16.2483,9.85206667 C14.8575167,10.2770333 13.4667333,10.7019833 12.19185,11.0883167 C13.0417667,7.37955 16.1710333,1.77778333 19.7253333,1.70051667 Z M15.24385,22.9486667 C15.3983833,25.4211667 21.9273333,25.962 22.3136667,31.7956667 C22.5841667,36.3928333 19.8798333,39.5221667 15.9778833,39.754 C11.2646667,40.063 8.67625,37.2815 8.67625,37.2815 L9.6807,33.0318333 C9.6807,33.0318333 12.2691167,35.0021667 14.3553,34.8476667 C15.70745,34.7703333 16.2096833,33.65 16.17105,32.8773333 C15.9778833,29.6321667 10.6465333,29.8253333 10.2988333,24.494 C9.98976667,20.0125 12.9258667,15.4924833 19.4161667,15.0675167 C21.9273333,14.9129833 23.2021667,15.5311167 23.2021667,15.5311167 L21.7341667,21.0943333 C21.7341667,21.0943333 20.073,20.3216667 18.1026667,20.4761667 C15.24385,20.6693333 15.2052167,22.485 15.24385,22.9486667 Z M24.4385,7.34091667 C24.4385,6.18193333 24.284,4.52071667 23.7431667,3.12993333 C25.5201667,3.47763333 26.3701667,5.44791667 26.7565,6.64553333 C26.061,6.8387 25.2883333,7.0705 24.4385,7.34091667 Z" id="Shape" fill-rule="nonzero"></path>
            <path d="M30.9635,47.9048333 L43.0943333,44.8915 C43.0943333,44.8915 37.8788333,9.61955 37.8401667,9.38775 C37.8015,9.15595 37.6083333,9.00141667 37.4151667,9.00141667 C37.222,9.00141667 33.8223333,8.92415 33.8223333,8.92415 C33.8223333,8.92415 31.7361667,6.91523333 30.9635,6.14258333 L30.9635,47.9048333 Z" id="Path"></path>
        </g>
    </g>
</svg>