<svg height="45" viewBox="0 0 60 45" width="60" xmlns="http://www.w3.org/2000/svg"><g fill="#fff" fill-rule="evenodd"><path d="m41.5087524 20.0511425c1.5759589-.5969541 3.2995276-.9703212 5.0990725-.9703212 7.3848641.0369025 13.3478915 5.6417578 13.3478915 12.5164974 0 6.8747398-5.9630274 12.5186685-13.3478915 12.5186685-7.3848636 0-13.3478916-5.6048558-13.3478916-12.5186685-1.8733504-18.3840128 19.9469469-31.38675688 19.9469469-31.38675688l1.7235693 2.0556927c0 .03690247-14.4332626 11.17280858-13.4216971 17.78488798z"/><path d="m8.40242067 20.0511425c1.57378828-.5969541 3.29952763-.9703212 5.09907303-.9703212 7.3848636 0 13.3457206 5.6048553 13.3457206 12.5164974 0 6.9138127-5.960857 12.5186685-13.3457206 12.5186685-7.38703467 0-13.34789214-5.6048558-13.34789214-12.5186685-1.87335038-18.3840128 19.94477634-31.38675688 19.94477634-31.38675688l1.7257399 2.0556927c0 .03690247-14.43543316 11.17280858-13.42169713 17.78488798z"/></g></svg>