<?xml version="1.0" encoding="UTF-8"?>
<svg width="462px" height="502px" viewBox="0 0 462 502" version="1.1" xmlns="http://www.w3.org/2000/svg" xmlns:xlink="http://www.w3.org/1999/xlink">
    <!-- Generator: Sketch 52.6 (67491) - http://www.bohemiancoding.com/sketch -->
    <title>Rocket-Export</title>
    <desc>Created with Sketch.</desc>
    <defs>
        <filter x="-17.9%" y="-18.0%" width="135.9%" height="136.1%" filterUnits="objectBoundingBox" id="filter-1">
            <feOffset dx="0" dy="10" in="SourceAlpha" result="shadowOffsetOuter1"></feOffset>
            <feGaussianBlur stdDeviation="15" in="shadowOffsetOuter1" result="shadowBlurOuter1"></feGaussianBlur>
            <feColorMatrix values="0 0 0 0 0.0745098039   0 0 0 0 0.105882353   0 0 0 0 0.145098039  0 0 0 0.318331069 0" type="matrix" in="shadowBlurOuter1" result="shadowMatrixOuter1"></feColorMatrix>
            <feMerge>
                <feMergeNode in="shadowMatrixOuter1"></feMergeNode>
                <feMergeNode in="SourceGraphic"></feMergeNode>
            </feMerge>
        </filter>
    </defs>
    <g id="Page-1" stroke="none" stroke-width="1" fill="none" fill-rule="evenodd">
        <g id="Blue-Illustration-Startup-Pricing-Plan-Presentation-" transform="translate(-1639.000000, -377.000000)">
            <g id="Rocket-Export" filter="url(#filter-1)" transform="translate(1874.500000, 624.500000) rotate(-6.000000) translate(-1874.500000, -624.500000) translate(1660.000000, 411.000000)">
                <path d="M122.619792,367.703125 C110.697917,379.625 67.255208,392.453125 42.932292,398.921875 C35.317708,400.942708 28.369792,394 30.4010413,386.390625 C36.885416,362.083333 49.7343747,318.6875 61.6614587,306.765625 C78.494792,289.942708 105.791667,289.901041 122.619792,306.729167 C139.494792,323.593749 139.453125,350.875 122.619792,367.703125 Z" id="Path" fill="#FFA837"></path>
                <path d="M122.630208,341.494792 C116.479167,347.645833 95.6041667,354.223959 81.4166667,358.151041 C75.182292,359.875 69.4739587,354.166667 71.2031253,347.9375 C75.1406253,333.760416 81.7239587,312.906251 87.880208,306.760416 C97.4739587,297.166667 113.036459,297.145833 122.630208,306.734375 C132.25,316.348959 132.223959,331.906251 122.630208,341.494792 Z" id="Path" fill="#F35B3D"></path>
                <path d="M171.234375,323.739584 L150.541667,344.421875 C147.041667,347.921875 141.364584,347.921875 137.859375,344.421875 L84.9531253,291.536459 C81.4531253,288.036459 81.4531253,282.359375 84.9531253,278.859375 L105.640625,258.177083 L171.234375,323.739584 Z" id="Path" fill="#2C3642"></path>
                <path d="M270.651041,380.125 C241.390625,404.125 200.8125,421.005208 159.942708,426.630208 C151.072917,427.854167 145.192708,418.010416 150.322917,410.671875 C172.171875,379.421875 185.333333,345.015625 189.302083,311.468749 L300.031251,230.119792 C324.354167,282.218749 323.390625,336.901041 270.651041,380.125 Z" id="Path" fill="#F35B3D"></path>
                <path d="M196.833333,126.963541 L115.447917,237.645833 C81.9218747,241.645833 47.4739587,254.781251 16.2031253,276.609375 C8.85937467,281.739584 -0.984374667,275.859375 0.239584,266.989584 C5.875,226.151041 22.7812507,185.614584 46.7656253,156.333333 C90.005208,103.614584 144.75,102.692708 196.833333,126.963541 Z" id="Path" fill="#F35B3D"></path>
                <path d="M321.567708,248.005208 L182.317708,337.416667 C175.223959,341.973959 165.911459,340.973959 159.947917,335.010416 L94.3437493,269.432292 C88.380208,263.473959 87.375,254.166667 91.9375,247.072917 L181.385416,107.880208 C190.515625,93.6875 201.041667,80.630208 212.640625,69.0312507 C260.953125,20.744792 328.578125,-4.26562533 397.385416,1.72395867 C413.630208,3.14062533 426.416667,15.9687493 427.8125,32.2083333 C435.151041,117.458333 394.848959,200.932292 321.567708,248.005208 Z" id="Path" fill="#F5F7FA"></path>
                <path d="M417.359375,123.453125 C426.739584,94.4010413 430.5,63.432292 427.8125,32.2031253 C426.416667,15.9687493 413.630208,3.14062533 397.395833,1.72395867 C366.098959,-1 335.078125,2.75 305.979167,12.119792 L417.359375,123.453125 Z" id="Path" fill="#F35B3D"></path>
                <path d="M327.796875,185.015625 C304.718749,208.088541 267.411459,208.088541 244.401041,185.088541 C221.322917,162.015625 221.322917,124.729167 244.401041,101.656251 C267.411459,78.6562507 304.718749,78.6562507 327.796875,101.729167 C350.807292,124.729167 350.807292,162.015625 327.796875,185.015625 Z" id="Path" fill="#2C3642"></path>
                <path d="M331.078125,137.927083 C331.255208,139.401041 331.359375,140.875 331.395833,142.359375 C331.427083,143.838541 331.385416,145.317708 331.276041,146.796875 C331.161459,148.276041 330.979167,149.744792 330.723959,151.203125 C330.463541,152.666667 330.140625,154.109375 329.739584,155.536459 C329.343749,156.963541 328.875,158.369792 328.338541,159.75 C327.802083,161.135416 327.197917,162.484375 326.526041,163.807292 C325.859375,165.130208 325.125,166.416667 324.328125,167.666667 C323.531251,168.921875 322.677083,170.130208 321.760416,171.296875 C320.848959,172.463541 319.880208,173.583333 318.854167,174.651041 C317.828125,175.723959 316.755208,176.744792 315.630208,177.708333 C314.505208,178.671875 313.333333,179.583333 312.119792,180.432292 C310.906251,181.286459 309.651041,182.072917 308.359375,182.802083 C307.067708,183.531251 305.744792,184.192708 304.385416,184.791667 C303.031251,185.390625 301.645833,185.916667 300.239584,186.380208 C298.828125,186.843749 297.401041,187.234375 295.953125,187.557292 C294.505208,187.880208 293.046875,188.130208 291.572917,188.307292 C290.098959,188.484375 288.625,188.588541 287.140625,188.625 C285.656251,188.656251 284.177083,188.619792 282.697917,188.505208 C281.218749,188.395833 279.75,188.208333 278.291667,187.953125 C276.828125,187.697917 275.385416,187.369792 273.958333,186.968749 C272.526041,186.572917 271.119792,186.104167 269.739584,185.567708 C268.359375,185.031251 267.005208,184.427083 265.682292,183.760416 C264.359375,183.088541 263.072917,182.359375 261.817708,181.5625 C260.567708,180.765625 259.359375,179.911459 258.192708,178.994792 C257.026041,178.083333 255.906251,177.114584 254.833333,176.088541 C253.760416,175.0625 252.739584,173.989584 251.776041,172.864584 C250.807292,171.739584 249.901041,170.572917 249.046875,169.359375 C248.197917,168.145833 247.406251,166.890625 246.682292,165.598959 C245.953125,164.307292 245.286459,162.984375 244.692708,161.630208 C244.093749,160.270833 243.5625,158.890625 243.098959,157.479167 C242.635416,156.072917 242.244792,154.645833 241.921875,153.197917 C241.604167,151.75 241.348959,150.291667 241.171875,148.817708 C240.994792,147.348959 240.890625,145.869792 240.854167,144.390625 C240.822917,142.906251 240.859375,141.427083 240.973959,139.947917 C241.088541,138.473959 241.270833,137 241.526041,135.541667 C241.781251,134.083333 242.109375,132.640625 242.510416,131.208333 C242.906251,129.781251 243.375,128.380208 243.911459,126.994792 C244.447917,125.614584 245.052083,124.260416 245.723959,122.9375 C246.390625,121.614584 247.125,120.328125 247.921875,119.078125 C248.718749,117.828125 249.572917,116.619792 250.484375,115.453125 C251.401041,114.286459 252.369792,113.166667 253.395833,112.093749 C254.421875,111.026041 255.494792,110.005208 256.619792,109.041667 C257.744792,108.072917 258.916667,107.166667 260.130208,106.3125 C261.343749,105.463541 262.598959,104.671875 263.890625,103.947917 C265.182292,103.218749 266.505208,102.557292 267.864584,101.958333 C269.218749,101.359375 270.604167,100.828125 272.010416,100.369792 C273.421875,99.9062507 274.848959,99.5156253 276.296875,99.192708 C277.744792,98.869792 279.203125,98.619792 280.677083,98.442708 C282.151041,98.2656253 283.625,98.1562507 285.109375,98.125 C286.588541,98.0885413 288.072917,98.130208 289.552083,98.244792 C291.031251,98.3541667 292.5,98.5364587 293.958333,98.7968747 C295.421875,99.0520827 296.864584,99.380208 298.291667,99.7760413 C299.723959,100.177083 301.125,100.645833 302.510416,101.182292 C303.890625,101.713541 305.244792,102.317708 306.567708,102.989584 C307.890625,103.656251 309.177083,104.390625 310.432292,105.1875 C311.682292,105.979167 312.890625,106.838541 314.057292,107.75 C315.223959,108.666667 316.343749,109.635416 317.416667,110.661459 C318.489584,111.682292 319.505208,112.760416 320.473959,113.880208 C321.4375,115.005208 322.348959,116.177083 323.197917,117.390625 C324.052083,118.604167 324.843749,119.854167 325.567708,121.145833 C326.296875,122.4375 326.963541,123.760416 327.557292,125.119792 C328.156251,126.473959 328.6875,127.859375 329.151041,129.265625 C329.609375,130.677083 330.005208,132.104167 330.328125,133.552083 C330.645833,134.994792 330.895833,136.458333 331.078125,137.927083 Z" id="Path" fill="#70A9EA"></path>
            </g>
        </g>
    </g>
</svg>