<?xml version="1.0" encoding="UTF-8"?>
<svg width="210px" height="29px" viewBox="0 0 210 29" version="1.1" xmlns="http://www.w3.org/2000/svg" xmlns:xlink="http://www.w3.org/1999/xlink">
    <!-- Generator: Sketch 52.6 (67491) - http://www.bohemiancoding.com/sketch -->
    <title>LOGO-Outline</title>
    <desc>Created with Sketch.</desc>
    <defs>
        <polygon id="path-1" points="0.446559727 0.263441045 29.2144074 0.263441045 29.2144074 28.6108356 0.446559727 28.6108356"></polygon>
    </defs>
    <g id="Page-1" stroke="none" stroke-width="1" fill="none" fill-rule="evenodd">
        <g id="LOGO-Outline" transform="translate(0.000000, -2.000000)">
            <g id="White-Orange-Modern-N-Alphabet-Tech-Business-Logo-(4)" transform="translate(0.000000, 2.064516)">
                <g id="Clipped">
                    <mask id="mask-2" fill="white">
                        <use xlink:href="#path-1"></use>
                    </mask>
                    <g id="Path"></g>
                    <path d="M6.18720216,23.5099254 L6.51330847,23.8283707 L6.54562548,23.8602147 C7.55919835,24.893714 7.54744678,26.5612078 6.51330847,27.5802318 C5.47917015,28.6021505 3.78988152,28.6108356 2.74105393,27.6120757 L2.70579921,27.5802318 L2.38263136,27.2617864 L1.49538732,26.384615 C0.449497432,25.354012 0.449497432,23.6662533 1.49538732,22.632754 C2.54127721,21.5992554 4.25700669,21.5992554 5.30289657,22.632754 L6.18720216,23.5099254 Z" id="Path" fill="#FFFFFF" mask="url(#mask-2)"></path>
                    <path d="M24.1436038,8.98883356 L24.4579586,8.67617847 L28.1391382,5.04880066 C29.1850289,4.01819686 29.1850289,2.33043819 28.1391382,1.29404485 C27.0903106,0.263441045 25.3775196,0.263441045 24.331629,1.29404485 L21.014748,4.56823784 L20.6533878,4.92431743 L20.3360946,5.23407775 L18.4323399,7.11000827 C17.3893885,8.14350685 17.3893885,9.83126551 18.4323399,10.8647641 L20.3360946,12.7406946 L20.6768909,13.0736146 L24.3580706,16.7009924 C25.4039605,17.7315962 27.1138138,17.7315962 28.1655798,16.7009924 C29.2114697,15.6703886 29.2114697,13.9797351 28.1655798,12.9491313 L24.4844002,9.31885875 L24.1436038,8.98883356 Z" id="Path" fill="#FFFFFF" mask="url(#mask-2)"></path>
                    <path d="M1.64815775,1.32009926 L1.64815775,1.31720449 C2.69404764,0.286600682 4.40683941,0.286600682 5.4527293,1.31720449 L28.1126974,23.6633585 C29.1644634,24.6939616 29.1644634,26.384615 28.1126974,27.4152196 C27.0668075,28.4487181 25.3569542,28.4487181 24.3081258,27.4152196 L1.64815775,5.06906553 C0.602267865,4.03846172 0.602267865,2.35070306 1.64815775,1.32009926 Z" id="Path" fill="#30C4AE" mask="url(#mask-2)"></path>
                    <path d="M1.61290304,12.0169563 C2.65879293,10.9863525 4.3715847,10.9863525 5.42041229,12.0169563 L7.99988267,14.5616215 L13.584817,20.0678246 L17.2659966,23.6952025 C18.3118865,24.7258063 18.3118865,26.4164597 17.2659966,27.4470635 C16.2142313,28.4805628 14.5043773,28.4805628 13.4584874,27.4470635 L9.77730771,23.8196857 L4.19531112,18.3134826 L1.61290304,15.7717122 C0.56701315,14.7382136 0.56701315,13.0475602 1.61290304,12.0169563 Z" id="Path" fill="#30C4AE" mask="url(#mask-2)"></path>
                </g>
            </g>
            <path d="M58.619871,7.79974194 L58.619871,23.7419355 L54.7365161,23.7419355 L54.7365161,13.7723871 L51.2846452,23.7419355 L47.9236129,23.7419355 L44.4490323,13.7496774 L44.4490323,23.7419355 L40.5656774,23.7419355 L40.5656774,7.79974194 L45.312,7.79974194 L49.6495484,18.9047742 L53.8962581,7.79974194 L58.619871,7.79974194 Z M73.6784515,7.4363871 C75.1924376,7.4363871 76.5663593,7.78838358 77.800258,8.4923871 C79.0341566,9.19639062 80.0068781,10.172897 80.7184515,11.4219355 C81.430025,12.670974 81.7858064,14.0827448 81.7858064,15.6572903 C81.7858064,17.2318358 81.4262401,18.6473916 80.7070967,19.904 C79.9879533,21.1606084 79.0114469,22.1408997 77.7775483,22.8449032 C76.5436496,23.5489067 75.1772977,23.9009032 73.6784515,23.9009032 C72.1796053,23.9009032 70.8132534,23.5489067 69.5793547,22.8449032 C68.3454561,22.1408997 67.3689497,21.1606084 66.6498064,19.904 C65.930663,18.6473916 65.5710967,17.2318358 65.5710967,15.6572903 C65.5710967,14.0827448 65.930663,12.670974 66.6498064,11.4219355 C67.3689497,10.172897 68.3454561,9.19639062 69.5793547,8.4923871 C70.8132534,7.78838358 72.1796053,7.4363871 73.6784515,7.4363871 Z M73.6784515,11.0472258 C72.4067032,11.0472258 71.3961327,11.4597808 70.6467096,12.2849032 C69.8972865,13.1100256 69.5225805,14.2341434 69.5225805,15.6572903 C69.5225805,17.0652974 69.8972865,18.1856302 70.6467096,19.0183226 C71.3961327,19.8510149 72.4067032,20.2673548 73.6784515,20.2673548 C74.9350599,20.2673548 75.9418456,19.8510149 76.6988386,19.0183226 C77.4558316,18.1856302 77.8343225,17.0652974 77.8343225,15.6572903 C77.8343225,14.2492833 77.4596166,13.1289504 76.7101934,12.2962581 C75.9607703,11.4635657 74.9501998,11.0472258 73.6784515,11.0472258 Z M106.768516,7.79974194 L106.768516,23.7419355 L102.885161,23.7419355 L102.885161,13.7723871 L99.4332901,23.7419355 L96.0722579,23.7419355 L92.5976772,13.7496774 L92.5976772,23.7419355 L88.7143224,23.7419355 L88.7143224,7.79974194 L93.460645,7.79974194 L97.7981934,18.9047742 L102.044903,7.79974194 L106.768516,7.79974194 Z M118.08,10.7747097 L118.08,14.1357419 L123.507613,14.1357419 L123.507613,17.0652903 L118.08,17.0652903 L118.08,20.6307097 L124.188903,20.6307097 L124.188903,23.7419355 L114.196645,23.7419355 L114.196645,7.68619355 L124.188903,7.68619355 L124.188903,10.7747097 L118.08,10.7747097 Z M145.401806,23.7419355 L141.518451,23.7419355 L135.023483,13.8859355 L135.023483,23.7419355 L131.140129,23.7419355 L131.140129,7.68619355 L135.023483,7.68619355 L141.518451,17.6330323 L141.518451,7.68619355 L145.401806,7.68619355 L145.401806,23.7419355 Z M164.366451,7.68619355 L164.366451,10.7747097 L160.006193,10.7747097 L160.006193,23.7419355 L156.100129,23.7419355 L156.100129,10.7747097 L151.78529,10.7747097 L151.78529,7.68619355 L164.366451,7.68619355 Z M174.519741,7.68619355 L174.519741,16.9517419 C174.519741,18.0115322 174.758191,18.8215026 175.235096,19.3816774 C175.712002,19.9418523 176.40464,20.2219355 177.313032,20.2219355 C178.221423,20.2219355 178.914062,19.9418523 179.390967,19.3816774 C179.867873,18.8215026 180.106322,18.0115322 180.106322,16.9517419 L180.106322,7.68619355 L183.989677,7.68619355 L183.989677,16.9517419 C183.989677,18.465728 183.694454,19.7412421 183.103999,20.7783226 C182.513545,21.815403 181.707359,22.5950942 180.685419,23.1174194 C179.663478,23.6397445 178.509081,23.9009032 177.222193,23.9009032 C175.935305,23.9009032 174.799832,23.6435295 173.815741,23.1287742 C172.83165,22.6140189 172.059529,21.8343278 171.499354,20.7896774 C170.939179,19.745027 170.659096,18.465728 170.659096,16.9517419 L170.659096,7.68619355 L174.519741,7.68619355 Z M209.381161,7.79974194 L209.381161,23.7419355 L205.497806,23.7419355 L205.497806,13.7723871 L202.045935,23.7419355 L198.684903,23.7419355 L195.210322,13.7496774 L195.210322,23.7419355 L191.326967,23.7419355 L191.326967,7.79974194 L196.07329,7.79974194 L200.410838,18.9047742 L204.657548,7.79974194 L209.381161,7.79974194 Z" id="MOMENTUM" fill="#FFFFFF"></path>
        </g>
    </g>
</svg>