<?xml version="1.0" encoding="UTF-8"?>
<svg width="125px" height="25px" viewBox="0 0 125 25" version="1.1" xmlns="http://www.w3.org/2000/svg" xmlns:xlink="http://www.w3.org/1999/xlink">
    <!-- Generator: Sketch 52.6 (67491) - http://www.bohemiancoding.com/sketch -->
    <title>meta-logo</title>
    <desc>Created with Sketch.</desc>
    <defs>
        <linearGradient x1="13.8784354%" y1="61.2565445%" x2="89.143574%" y2="66.4921466%" id="linearGradient-1">
            <stop stop-color="#0064E1" offset="0%"></stop>
            <stop stop-color="#0064E1" offset="40%"></stop>
            <stop stop-color="#0073EE" offset="83%"></stop>
            <stop stop-color="#0082FB" offset="100%"></stop>
        </linearGradient>
        <linearGradient x1="54.3150272%" y1="82.782443%" x2="54.3150272%" y2="39.3067715%" id="linearGradient-2">
            <stop stop-color="#0082FB" offset="0%"></stop>
            <stop stop-color="#0064E0" offset="100%"></stop>
        </linearGradient>
    </defs>
    <g id="Page-1" stroke="none" stroke-width="1" fill="none" fill-rule="evenodd">
        <g id="meta-logo">
            <path d="M4.06544503,16.486911 C4.06544503,17.9240838 4.38089005,19.0274869 4.79319372,19.6950262 C5.33376963,20.5693717 6.14005236,20.9397906 6.96204188,20.9397906 C8.02225131,20.9397906 8.9921466,20.6767016 10.8612565,18.091623 C12.3586387,16.0196335 14.1230366,13.1112565 15.3102094,11.2879581 L17.3206806,8.19895288 C18.7172775,6.05366492 20.3337696,3.66884817 22.1871728,2.05235602 C23.7002618,0.732984293 25.3324607,0 26.9751309,0 C29.7329843,0 32.3599476,1.59816754 34.3704188,4.59554974 C36.5706806,7.87827225 37.6387435,12.013089 37.6387435,16.2801047 C37.6387435,18.8167539 37.1387435,20.6806283 36.2879581,22.1531414 C35.4659686,23.5772251 33.8638743,25 31.1688482,25 L31.1688482,20.9397906 C33.4764398,20.9397906 34.052356,18.8193717 34.052356,16.3926702 C34.052356,12.934555 33.2460733,9.09685864 31.4698953,6.35471204 C30.2094241,4.40968586 28.5759162,3.22120419 26.7787958,3.22120419 C24.8350785,3.22120419 23.2709424,4.68717277 21.513089,7.30104712 C20.578534,8.68979058 19.6191099,10.382199 18.5418848,12.2918848 L17.3560209,14.3926702 C14.973822,18.6164921 14.3704188,19.578534 13.1793194,21.1662304 C11.091623,23.9463351 9.30890052,25 6.96204188,25 C4.17801047,25 2.41753927,23.7945026 1.32722513,21.9777487 C0.437172775,20.4973822 0,18.5549738 0,16.341623 L4.06544503,16.486911 Z" id="Logo0" fill="#0081FB"></path>
            <path d="M3.20549738,4.88219895 C5.06937173,2.0091623 7.7591623,0 10.8442408,0 C12.6308901,0 14.4070681,0.528795812 16.2617801,2.04319372 C18.2905759,3.69895288 20.4528796,6.42539267 23.1505236,10.9188482 L24.117801,12.5314136 C26.4528796,16.421466 27.7814136,18.4227749 28.5589005,19.3664921 C29.5589005,20.578534 30.2591623,20.9397906 31.1688482,20.9397906 C33.4764398,20.9397906 34.052356,18.8193717 34.052356,16.3926702 L37.6387435,16.2801047 C37.6387435,18.8167539 37.1387435,20.6806283 36.2879581,22.1531414 C35.4659686,23.5772251 33.8638743,25 31.1688482,25 C29.4934555,25 28.0091623,24.6361257 26.367801,23.0876963 C25.1060209,21.8992147 23.6308901,19.7879581 22.4960733,17.8900524 L19.1204188,12.2513089 C17.4267016,9.42146597 15.8730366,7.31151832 14.973822,6.35602094 C14.0065445,5.32853403 12.763089,4.08769634 10.7787958,4.08769634 C9.17277487,4.08769634 7.80890052,5.21465969 6.66753927,6.93848168 L3.20549738,4.88219895 Z" id="Logo1" fill="url(#linearGradient-1)"></path>
            <path d="M10.7787958,4.08769634 C9.17277487,4.08769634 7.80890052,5.21465969 6.66753927,6.93848168 C5.05366492,9.37434555 4.06544503,13.0026178 4.06544503,16.486911 C4.06544503,17.9240838 4.38089005,19.0274869 4.79319372,19.6950262 L1.32722513,21.9777487 C0.437172775,20.4973822 0,18.5549738 0,16.341623 C0,12.3167539 1.10471204,8.12172775 3.20549738,4.88219895 C5.06937173,2.0091623 7.7591623,0 10.8442408,0 L10.7787958,4.08769634 Z" id="Logo2" fill="url(#linearGradient-2)"></path>
            <path d="M45.5418848,0.790575916 L50.2447644,0.790575916 L58.2408377,15.2565445 L66.2382199,0.790575916 L70.8390052,0.790575916 L70.8390052,24.5602094 L67.0026178,24.5602094 L67.0026178,6.34293194 L59.9895288,18.9581152 L56.3900524,18.9581152 L49.3782723,6.34293194 L49.3782723,24.5602094 L45.5418848,24.5602094 L45.5418848,0.790575916 Z M82.8599476,9.65314136 C80.1086387,9.65314136 78.4515707,11.723822 78.0549738,14.2879581 L87.3926702,14.2879581 C87.2002618,11.6465969 85.6767016,9.65314136 82.8599476,9.65314136 Z M74.2513089,15.7486911 C74.2513089,10.3534031 77.7382199,6.42670157 82.9267016,6.42670157 C88.0301047,6.42670157 91.0772251,10.3036649 91.0772251,16.0366492 L91.0772251,17.0903141 L78.0549738,17.0903141 C78.5170157,19.8795812 80.367801,21.7591623 83.3520942,21.7591623 C85.7329843,21.7591623 87.2212042,21.0327225 88.632199,19.7041885 L90.6701571,22.2002618 C88.75,23.9659686 86.3075916,24.9842932 83.2159686,24.9842932 C77.5994764,24.9842932 74.2513089,20.8887435 74.2513089,15.7486911 Z M95.7290576,9.9934555 L92.197644,9.9934555 L92.197644,6.85209424 L95.7290576,6.85209424 L95.7290576,1.65706806 L99.4306283,1.65706806 L99.4306283,6.85209424 L104.795812,6.85209424 L104.795812,9.9934555 L99.4306283,9.9934555 L99.4306283,17.9554974 C99.4306283,20.6740838 100.299738,21.6400524 102.435864,21.6400524 C103.410995,21.6400524 103.969895,21.5562827 104.795812,21.4188482 L104.795812,24.526178 C103.767016,24.8167539 102.78534,24.9502618 101.722513,24.9502618 C97.7264398,24.9502618 95.7290576,22.7670157 95.7290576,18.3965969 L95.7290576,9.9934555 Z M120.382199,13.0484293 C119.638743,11.171466 117.980366,9.78926702 115.543194,9.78926702 C112.375654,9.78926702 110.348168,12.0366492 110.348168,15.697644 C110.348168,19.2670157 112.21466,21.6230366 115.391361,21.6230366 C117.888743,21.6230366 119.671466,20.1701571 120.382199,18.3625654 L120.382199,13.0484293 Z M124.08377,24.5602094 L120.450262,24.5602094 L120.450262,22.0811518 C119.434555,23.5405759 117.586387,24.9842932 114.592932,24.9842932 C109.778796,24.9842932 106.561518,20.9541885 106.561518,15.697644 C106.561518,10.3913613 109.856021,6.42670157 114.79712,6.42670157 C117.239529,6.42670157 119.155759,7.40314136 120.450262,9.12696335 L120.450262,6.85209424 L124.08377,6.85209424 L124.08377,24.5602094 Z" id="Text" fill="#192830" fill-rule="nonzero"></path>
        </g>
    </g>
</svg>