<?xml version="1.0" encoding="UTF-8"?>
<svg width="123px" height="35px" viewBox="0 0 123 35" version="1.1" xmlns="http://www.w3.org/2000/svg" xmlns:xlink="http://www.w3.org/1999/xlink">
    <!-- Generator: Sketch 52.6 (67491) - http://www.bohemiancoding.com/sketch -->
    <title>Shopify-Logo.wine</title>
    <desc>Created with Sketch.</desc>
    <g id="Page-1" stroke="none" stroke-width="1" fill="none" fill-rule="evenodd">
        <g id="Shopify-Logo.wine">
            <path d="M26.32,6.64 C26.3,6.46 26.14,6.38 26.02,6.38 C25.9,6.38 23.28,6.18 23.28,6.18 C23.28,6.18 21.46,4.36 21.24,4.18 C21.04,3.98 20.66,4.04 20.5,4.08 C20.48,4.08 20.1,4.2 19.48,4.4 C18.86,2.62 17.8,1 15.9,1 L15.72,1 C15.2,0.32 14.52,0 13.96,0 C9.56,0 7.44,5.5 6.78,8.3 C5.06,8.84 3.84,9.2 3.7,9.26 C2.74,9.56 2.72,9.58 2.6,10.48 C2.5,11.16 0,30.5 0,30.5 L19.46,34.14 L30.02,31.86 C30.04,31.82 26.34,6.82 26.32,6.64 Z M18.4,4.68 C17.92,4.82 17.34,5 16.76,5.2 L16.76,4.84 C16.76,3.76 16.62,2.88 16.36,2.18 C17.36,2.3 17.98,3.4 18.4,4.68 Z M15.14,2.4 C15.4,3.08 15.58,4.04 15.58,5.36 L15.58,5.56 C14.5,5.9 13.36,6.24 12.18,6.62 C12.84,4.1 14.1,2.86 15.14,2.4 Z M13.86,1.16 C14.06,1.16 14.26,1.24 14.42,1.36 C13,2.02 11.5,3.68 10.88,7.04 C9.94,7.34 9.04,7.6 8.18,7.88 C8.9,5.32 10.7,1.16 13.86,1.16 Z" id="Shape" fill="#95BF47" fill-rule="nonzero"></path>
            <path d="M26.02,6.34 C25.9,6.34 23.28,6.14 23.28,6.14 C23.28,6.14 21.46,4.32 21.24,4.14 C21.16,4.06 21.06,4.02 20.98,4.02 L19.52,34.14 L30.08,31.86 C30.08,31.86 26.38,6.82 26.36,6.64 C26.28,6.46 26.14,6.38 26.02,6.34 Z" id="Path" fill="#5E8E3E"></path>
            <path d="M15.9,12.18 L14.62,16.04 C14.62,16.04 13.46,15.42 12.08,15.42 C10.02,15.42 9.92,16.72 9.92,17.04 C9.92,18.8 14.52,19.48 14.52,23.62 C14.52,26.88 12.46,28.98 9.68,28.98 C6.32,28.98 4.64,26.9 4.64,26.9 L5.54,23.94 C5.54,23.94 7.3,25.46 8.78,25.46 C9.76,25.46 10.16,24.7 10.16,24.14 C10.16,21.84 6.4,21.74 6.4,17.94 C6.4,14.76 8.68,11.68 13.3,11.68 C15.02,11.66 15.9,12.18 15.9,12.18 Z" id="Path" fill="#FFFFFF"></path>
            <path d="M42.34,19.44 C41.28,18.88 40.74,18.38 40.74,17.72 C40.74,16.88 41.5,16.34 42.68,16.34 C44.06,16.34 45.28,16.9 45.28,16.9 L46.24,13.96 C46.24,13.96 45.36,13.28 42.76,13.28 C39.14,13.28 36.62,15.36 36.62,18.28 C36.62,19.94 37.8,21.2 39.36,22.1 C40.64,22.8 41.08,23.32 41.08,24.08 C41.08,24.86 40.44,25.5 39.26,25.5 C37.52,25.5 35.86,24.6 35.86,24.6 L34.84,27.54 C34.84,27.54 36.36,28.56 38.92,28.56 C42.64,28.56 45.34,26.72 45.34,23.42 C45.3,21.62 43.96,20.38 42.34,19.44 Z M57.18,13.24 C55.34,13.24 53.9,14.12 52.8,15.44 L52.76,15.42 L54.36,7.1 L50.22,7.1 L46.18,28.3 L50.32,28.3 L51.7,21.06 C52.24,18.32 53.66,16.62 54.98,16.62 C55.92,16.62 56.28,17.26 56.28,18.16 C56.28,18.72 56.24,19.44 56.1,20 L54.54,28.3 L58.68,28.3 L60.3,19.74 C60.48,18.84 60.6,17.76 60.6,17.02 C60.58,14.64 59.36,13.24 57.18,13.24 Z M69.96,13.24 C64.96,13.24 61.66,17.74 61.66,22.76 C61.66,25.96 63.64,28.56 67.36,28.56 C72.26,28.56 75.56,24.18 75.56,19.04 C75.58,16.06 73.86,13.24 69.96,13.24 Z M67.92,25.4 C66.5,25.4 65.92,24.2 65.92,22.68 C65.92,20.3 67.14,16.44 69.4,16.44 C70.86,16.44 71.36,17.72 71.36,18.94 C71.36,21.48 70.1,25.4 67.92,25.4 Z M86.18,13.24 C83.38,13.24 81.8,15.72 81.8,15.72 L81.76,15.72 L82,13.5 L78.32,13.5 C78.14,15 77.8,17.3 77.48,19 L74.62,34.18 L78.76,34.18 L79.92,28.04 L80.02,28.04 C80.02,28.04 80.88,28.58 82.44,28.58 C87.32,28.58 90.5,23.58 90.5,18.54 C90.48,15.74 89.22,13.24 86.18,13.24 Z M82.22,25.44 C81.14,25.44 80.5,24.82 80.5,24.82 L81.18,20.96 C81.66,18.36 83.02,16.66 84.46,16.66 C85.74,16.66 86.12,17.84 86.12,18.94 C86.14,21.62 84.54,25.44 82.22,25.44 Z M96.4,7.3 C95.08,7.3 94.02,8.36 94.02,9.7 C94.02,10.92 94.8,11.78 95.98,11.78 L96.02,11.78 C97.32,11.78 98.42,10.9 98.44,9.38 C98.46,8.16 97.64,7.3 96.4,7.3 Z M90.6,28.28 L94.74,28.28 L97.54,13.56 L93.38,13.56 L90.6,28.28 Z M108.1,13.54 L105.22,13.54 L105.36,12.86 C105.6,11.44 106.44,10.2 107.84,10.2 C108.58,10.2 109.16,10.42 109.16,10.42 L109.96,7.16 C109.96,7.16 109.26,6.8 107.7,6.8 C106.24,6.8 104.76,7.22 103.64,8.18 C102.22,9.38 101.56,11.12 101.24,12.88 L101.12,13.56 L99.18,13.56 L98.56,16.7 L100.5,16.7 L98.3,28.3 L102.44,28.3 L104.64,16.7 L107.5,16.7 L108.1,13.54 Z M118.08,13.56 C118.08,13.56 115.48,20.1 114.34,23.68 L114.3,23.68 C114.22,22.52 113.28,13.56 113.28,13.56 L108.92,13.56 L111.42,27.04 C111.46,27.34 111.44,27.52 111.32,27.72 C110.84,28.66 110.02,29.56 109.06,30.22 C108.28,30.78 107.4,31.16 106.7,31.4 L107.86,34.92 C108.7,34.74 110.46,34.04 111.92,32.66 C113.8,30.9 115.56,28.16 117.36,24.44 L122.42,13.54 L118.08,13.54 L118.08,13.56 Z" id="Shape" fill="#000000" fill-rule="nonzero"></path>
        </g>
    </g>
</svg>