<?xml version="1.0" encoding="UTF-8"?>
<svg width="84px" height="35px" viewBox="0 0 84 35" version="1.1" xmlns="http://www.w3.org/2000/svg" xmlns:xlink="http://www.w3.org/1999/xlink">
    <!-- Generator: Sketch 52.6 (67491) - http://www.bohemiancoding.com/sketch -->
    <title>stripe-logo</title>
    <desc>Created with Sketch.</desc>
    <g id="Page-1" stroke="none" stroke-width="1" fill="none" fill-rule="evenodd">
        <g id="stripe-logo" fill="#635BFF">
            <path d="M84,18.06 C84,12.0866667 81.1066667,7.37333333 75.5766667,7.37333333 C70.0233333,7.37333333 66.6633333,12.0866667 66.6633333,18.0133333 C66.6633333,25.0366667 70.63,28.5833333 76.3233333,28.5833333 C79.1,28.5833333 81.2,27.9533333 82.7866667,27.0666667 L82.7866667,22.4 C81.2,23.1933333 79.38,23.6833333 77.07,23.6833333 C74.8066667,23.6833333 72.8,22.89 72.5433333,20.1366667 L83.9533333,20.1366667 C83.9533333,19.8333333 84,18.62 84,18.06 Z M72.4733333,15.8433333 C72.4733333,13.2066667 74.0833333,12.11 75.5533333,12.11 C76.9766667,12.11 78.4933333,13.2066667 78.4933333,15.8433333 L72.4733333,15.8433333 Z" id="Shape"></path>
            <path d="M57.6566667,7.37333333 C55.37,7.37333333 53.9,8.44666667 53.0833333,9.19333333 L52.78,7.74666667 L47.6466667,7.74666667 L47.6466667,34.9533333 L53.48,33.7166667 L53.5033333,27.1133333 C54.3433333,27.72 55.58,28.5833333 57.6333333,28.5833333 C61.81,28.5833333 65.6133333,25.2233333 65.6133333,17.8266667 C65.59,11.06 61.74,7.37333333 57.6566667,7.37333333 Z M56.2566667,23.45 C54.88,23.45 54.0633333,22.96 53.5033333,22.3533333 L53.48,13.6966667 C54.0866667,13.02 54.9266667,12.5533333 56.2566667,12.5533333 C58.38,12.5533333 59.85,14.9333333 59.85,17.99 C59.85,21.1166667 58.4033333,23.45 56.2566667,23.45 Z" id="Shape"></path>
            <polygon id="Path" points="39.62 5.99666667 45.4766667 4.73666667 45.4766667 0 39.62 1.23666667"></polygon>
            <rect id="Rectangle" x="39.62" y="7.77" width="5.85666667" height="20.4166667"></rect>
            <path d="M33.3433333,9.49666667 L32.97,7.77 L27.93,7.77 L27.93,28.1866667 L33.7633333,28.1866667 L33.7633333,14.35 C35.14,12.5533333 37.4733333,12.88 38.1966667,13.1366667 L38.1966667,7.77 C37.45,7.49 34.72,6.97666667 33.3433333,9.49666667 Z" id="Path"></path>
            <path d="M21.6766667,2.70666667 L15.9833333,3.92 L15.96,22.61 C15.96,26.0633333 18.55,28.6066667 22.0033333,28.6066667 C23.9166667,28.6066667 25.3166667,28.2566667 26.0866667,27.8366667 L26.0866667,23.1 C25.34,23.4033333 21.6533333,24.4766667 21.6533333,21.0233333 L21.6533333,12.74 L26.0866667,12.74 L26.0866667,7.77 L21.6533333,7.77 L21.6766667,2.70666667 Z" id="Path"></path>
            <path d="M5.90333333,13.6966667 C5.90333333,12.7866667 6.65,12.4366667 7.88666667,12.4366667 C9.66,12.4366667 11.9,12.9733333 13.6733333,13.93 L13.6733333,8.44666667 C11.7366667,7.67666667 9.82333333,7.37333333 7.88666667,7.37333333 C3.15,7.37333333 0,9.84666667 0,13.9766667 C0,20.4166667 8.86666667,19.39 8.86666667,22.1666667 C8.86666667,23.24 7.93333333,23.59 6.62666667,23.59 C4.69,23.59 2.21666667,22.7966667 0.256666667,21.7233333 L0.256666667,27.2766667 C2.42666667,28.21 4.62,28.6066667 6.62666667,28.6066667 C11.48,28.6066667 14.8166667,26.2033333 14.8166667,22.0266667 C14.7933333,15.0733333 5.90333333,16.31 5.90333333,13.6966667 Z" id="Path"></path>
        </g>
    </g>
</svg>