<?xml version="1.0" encoding="UTF-8"?>
<svg width="8px" height="8px" viewBox="0 0 8 8" version="1.1" xmlns="http://www.w3.org/2000/svg" xmlns:xlink="http://www.w3.org/1999/xlink">
    <!-- Generator: Sketch 52.6 (67491) - http://www.bohemiancoding.com/sketch -->
    <title>Path</title>
    <desc>Created with Sketch.</desc>
    <g id="Page-1" stroke="none" stroke-width="1" fill="none" fill-rule="evenodd">
        <g id="x" fill="#FFFFFF">
            <path d="M0.646,0.646 C0.739804263,0.551958299 0.867172739,0.499106216 1,0.499106216 C1.13282726,0.499106216 1.26019574,0.551958299 1.354,0.646 L4,3.293 L6.646,0.646 C6.77247202,0.519527981 6.956809,0.470135035 7.12957299,0.516427007 C7.30233698,0.562718979 7.43728102,0.697663016 7.48357299,0.870427007 C7.52986496,1.043191 7.48047202,1.22752798 7.354,1.354 L4.707,4 L7.354,6.646 C7.48047202,6.77247202 7.52986496,6.956809 7.48357299,7.12957299 C7.43728102,7.30233698 7.30233698,7.43728102 7.12957299,7.48357299 C6.956809,7.52986496 6.77247202,7.48047202 6.646,7.354 L4,4.707 L1.354,7.354 C1.22752798,7.48047202 1.043191,7.52986496 0.870427007,7.48357299 C0.697663016,7.43728102 0.562718979,7.30233698 0.516427007,7.12957299 C0.470135035,6.956809 0.519527981,6.77247202 0.646,6.646 L3.293,4 L0.646,1.354 C0.551958299,1.26019574 0.499106216,1.13282726 0.499106216,1 C0.499106216,0.867172739 0.551958299,0.739804263 0.646,0.646" id="Path"></path>
        </g>
    </g>
</svg>